<mxfile host="app.diagrams.net" modified="2024-05-18T13:58:05.614Z" agent="Mozilla/5.0 (Windows NT 10.0; Win64; x64) AppleWebKit/537.36 (KHTML, like Gecko) Chrome/124.0.0.0 Safari/537.36" etag="tddFSSig8LvR3eYq7-Od" version="24.4.4" type="github">
  <diagram name="Страница — 1" id="MQ8xpzXWZ4cVe-FUF9sx">
    <mxGraphModel dx="3291" dy="2181" grid="1" gridSize="10" guides="1" tooltips="1" connect="1" arrows="1" fold="1" page="1" pageScale="1" pageWidth="827" pageHeight="1169" math="0" shadow="0">
      <root>
        <mxCell id="0" />
        <mxCell id="1" parent="0" />
        <mxCell id="Xvs3PHVjeso9eTJmXJPS-153" value="&amp;lt;&amp;lt;Entity&amp;gt;&amp;gt;&lt;br&gt;Заказ" style="swimlane;fontStyle=1;align=center;verticalAlign=top;childLayout=stackLayout;horizontal=1;startSize=40;horizontalStack=0;resizeParent=1;resizeParentMax=0;resizeLast=0;collapsible=1;marginBottom=0;whiteSpace=wrap;html=1;" parent="1" vertex="1">
          <mxGeometry x="700" y="-820" width="160" height="118" as="geometry" />
        </mxCell>
        <mxCell id="Xvs3PHVjeso9eTJmXJPS-154" value="+ id заказа: Integer" style="text;strokeColor=none;fillColor=none;align=left;verticalAlign=top;spacingLeft=4;spacingRight=4;overflow=hidden;rotatable=0;points=[[0,0.5],[1,0.5]];portConstraint=eastwest;whiteSpace=wrap;html=1;" parent="Xvs3PHVjeso9eTJmXJPS-153" vertex="1">
          <mxGeometry y="40" width="160" height="26" as="geometry" />
        </mxCell>
        <mxCell id="ynVwD2x9rQIdQhet0h1p-30" value="+ id клиента: Integer" style="text;strokeColor=none;fillColor=none;align=left;verticalAlign=top;spacingLeft=4;spacingRight=4;overflow=hidden;rotatable=0;points=[[0,0.5],[1,0.5]];portConstraint=eastwest;whiteSpace=wrap;html=1;" parent="Xvs3PHVjeso9eTJmXJPS-153" vertex="1">
          <mxGeometry y="66" width="160" height="26" as="geometry" />
        </mxCell>
        <mxCell id="ynVwD2x9rQIdQhet0h1p-31" value="+ Блюда: Блюдо[...]" style="text;strokeColor=none;fillColor=none;align=left;verticalAlign=top;spacingLeft=4;spacingRight=4;overflow=hidden;rotatable=0;points=[[0,0.5],[1,0.5]];portConstraint=eastwest;whiteSpace=wrap;html=1;" parent="Xvs3PHVjeso9eTJmXJPS-153" vertex="1">
          <mxGeometry y="92" width="160" height="26" as="geometry" />
        </mxCell>
        <mxCell id="Xvs3PHVjeso9eTJmXJPS-192" value="sd: Оказание услуги" style="shape=umlFrame;whiteSpace=wrap;html=1;pointerEvents=0;recursiveResize=0;container=1;collapsible=0;width=160;" parent="1" vertex="1">
          <mxGeometry x="64" y="60" width="1160" height="950" as="geometry" />
        </mxCell>
        <mxCell id="YR0dXk5SmRrYiJsqpAdZ-65" value="" style="shape=umlLifeline;participant=umlEntity;perimeter=lifelinePerimeter;whiteSpace=wrap;html=1;container=1;collapsible=0;recursiveResize=0;verticalAlign=top;spacingTop=36;outlineConnect=0;strokeWidth=1;" parent="Xvs3PHVjeso9eTJmXJPS-192" vertex="1">
          <mxGeometry x="655.01" y="70" width="44.99" height="880" as="geometry" />
        </mxCell>
        <mxCell id="YR0dXk5SmRrYiJsqpAdZ-70" value="" style="rounded=0;whiteSpace=wrap;html=1;strokeWidth=1;rotation=90;" parent="YR0dXk5SmRrYiJsqpAdZ-65" vertex="1">
          <mxGeometry x="-2.4000000000000004" y="236.29" width="52.38" height="12.57" as="geometry" />
        </mxCell>
        <mxCell id="Xvs3PHVjeso9eTJmXJPS-193" value="" style="shape=umlLifeline;perimeter=lifelinePerimeter;whiteSpace=wrap;html=1;container=1;dropTarget=0;collapsible=0;recursiveResize=0;outlineConnect=0;portConstraint=eastwest;newEdgeStyle={&quot;curved&quot;:0,&quot;rounded&quot;:0};participant=umlActor;" parent="Xvs3PHVjeso9eTJmXJPS-192" vertex="1">
          <mxGeometry x="40" y="70" width="20" height="880" as="geometry" />
        </mxCell>
        <mxCell id="Xvs3PHVjeso9eTJmXJPS-194" value="" style="html=1;points=[[0,0,0,0,5],[0,1,0,0,-5],[1,0,0,0,5],[1,1,0,0,-5]];perimeter=orthogonalPerimeter;outlineConnect=0;targetShapes=umlLifeline;portConstraint=eastwest;newEdgeStyle={&quot;curved&quot;:0,&quot;rounded&quot;:0};" parent="Xvs3PHVjeso9eTJmXJPS-193" vertex="1">
          <mxGeometry x="5" y="80" width="10" height="760" as="geometry" />
        </mxCell>
        <mxCell id="Xvs3PHVjeso9eTJmXJPS-195" value="Администратор" style="text;html=1;align=center;verticalAlign=middle;whiteSpace=wrap;rounded=0;fontSize=10;" parent="Xvs3PHVjeso9eTJmXJPS-192" vertex="1">
          <mxGeometry x="-10" y="58" width="120" height="10" as="geometry" />
        </mxCell>
        <mxCell id="Xvs3PHVjeso9eTJmXJPS-196" value="" style="shape=umlLifeline;perimeter=lifelinePerimeter;whiteSpace=wrap;html=1;container=1;dropTarget=0;collapsible=0;recursiveResize=0;outlineConnect=0;portConstraint=eastwest;newEdgeStyle={&quot;curved&quot;:0,&quot;rounded&quot;:0};participant=umlBoundary;" parent="Xvs3PHVjeso9eTJmXJPS-192" vertex="1">
          <mxGeometry x="228.75" y="70" width="50" height="880" as="geometry" />
        </mxCell>
        <mxCell id="Xvs3PHVjeso9eTJmXJPS-197" value="" style="html=1;points=[[0,0,0,0,5],[0,1,0,0,-5],[1,0,0,0,5],[1,1,0,0,-5]];perimeter=orthogonalPerimeter;outlineConnect=0;targetShapes=umlLifeline;portConstraint=eastwest;newEdgeStyle={&quot;curved&quot;:0,&quot;rounded&quot;:0};" parent="Xvs3PHVjeso9eTJmXJPS-196" vertex="1">
          <mxGeometry x="21.25" y="80" width="10" height="260" as="geometry" />
        </mxCell>
        <mxCell id="Xvs3PHVjeso9eTJmXJPS-199" value="Сервис администратора" style="text;html=1;align=center;verticalAlign=middle;whiteSpace=wrap;rounded=0;fontSize=10;" parent="Xvs3PHVjeso9eTJmXJPS-192" vertex="1">
          <mxGeometry x="212.82" y="48" width="81.87" height="10" as="geometry" />
        </mxCell>
        <mxCell id="Xvs3PHVjeso9eTJmXJPS-200" value="1: принять клиента" style="html=1;verticalAlign=bottom;endArrow=block;curved=0;rounded=0;" parent="Xvs3PHVjeso9eTJmXJPS-192" target="Xvs3PHVjeso9eTJmXJPS-197" edge="1">
          <mxGeometry x="-0.004" relative="1" as="geometry">
            <mxPoint x="55" y="170.00000000000068" as="sourcePoint" />
            <mxPoint as="offset" />
            <mxPoint x="200" y="170" as="targetPoint" />
          </mxGeometry>
        </mxCell>
        <mxCell id="Xvs3PHVjeso9eTJmXJPS-201" value="5: информация о клиенте" style="html=1;verticalAlign=bottom;endArrow=open;dashed=1;endSize=8;curved=0;rounded=0;exitX=0;exitY=1;exitDx=0;exitDy=-5;" parent="Xvs3PHVjeso9eTJmXJPS-192" source="Xvs3PHVjeso9eTJmXJPS-197" target="Xvs3PHVjeso9eTJmXJPS-194" edge="1">
          <mxGeometry x="0.0014" relative="1" as="geometry">
            <mxPoint x="90" y="225" as="targetPoint" />
            <Array as="points" />
            <mxPoint as="offset" />
          </mxGeometry>
        </mxCell>
        <mxCell id="Xvs3PHVjeso9eTJmXJPS-202" value="" style="shape=umlLifeline;perimeter=lifelinePerimeter;whiteSpace=wrap;html=1;container=1;dropTarget=0;collapsible=0;recursiveResize=0;outlineConnect=0;portConstraint=eastwest;newEdgeStyle={&quot;curved&quot;:0,&quot;rounded&quot;:0};participant=umlControl;" parent="Xvs3PHVjeso9eTJmXJPS-192" vertex="1">
          <mxGeometry x="455.25" y="70" width="40" height="880" as="geometry" />
        </mxCell>
        <mxCell id="Xvs3PHVjeso9eTJmXJPS-203" value="" style="html=1;points=[[0,0,0,0,5],[0,1,0,0,-5],[1,0,0,0,5],[1,1,0,0,-5]];perimeter=orthogonalPerimeter;outlineConnect=0;targetShapes=umlLifeline;portConstraint=eastwest;newEdgeStyle={&quot;curved&quot;:0,&quot;rounded&quot;:0};" parent="Xvs3PHVjeso9eTJmXJPS-202" vertex="1">
          <mxGeometry x="16" y="162.5" width="10" height="157.5" as="geometry" />
        </mxCell>
        <mxCell id="Xvs3PHVjeso9eTJmXJPS-204" value="" style="html=1;points=[[0,0,0,0,5],[0,1,0,0,-5],[1,0,0,0,5],[1,1,0,0,-5]];perimeter=orthogonalPerimeter;outlineConnect=0;targetShapes=umlLifeline;portConstraint=eastwest;newEdgeStyle={&quot;curved&quot;:0,&quot;rounded&quot;:0};" parent="Xvs3PHVjeso9eTJmXJPS-202" vertex="1">
          <mxGeometry x="15" y="465" width="10" height="155" as="geometry" />
        </mxCell>
        <mxCell id="Xvs3PHVjeso9eTJmXJPS-205" value="Сервис клиентов" style="text;html=1;align=center;verticalAlign=middle;whiteSpace=wrap;rounded=0;fontSize=10;" parent="Xvs3PHVjeso9eTJmXJPS-192" vertex="1">
          <mxGeometry x="422.61" y="58" width="105.28" height="10" as="geometry" />
        </mxCell>
        <mxCell id="Xvs3PHVjeso9eTJmXJPS-206" value="2: получить информацию о клиенте" style="html=1;verticalAlign=bottom;endArrow=block;curved=0;rounded=0;entryX=0;entryY=0;entryDx=0;entryDy=5;" parent="Xvs3PHVjeso9eTJmXJPS-192" source="Xvs3PHVjeso9eTJmXJPS-197" target="Xvs3PHVjeso9eTJmXJPS-203" edge="1">
          <mxGeometry x="-0.0002" relative="1" as="geometry">
            <mxPoint x="360" y="238" as="sourcePoint" />
            <mxPoint as="offset" />
          </mxGeometry>
        </mxCell>
        <mxCell id="Xvs3PHVjeso9eTJmXJPS-207" value="4: информация о клиенте" style="html=1;verticalAlign=bottom;endArrow=open;dashed=1;endSize=8;curved=0;rounded=0;" parent="Xvs3PHVjeso9eTJmXJPS-192" edge="1">
          <mxGeometry x="0.0059" relative="1" as="geometry">
            <mxPoint x="259" y="390" as="targetPoint" />
            <Array as="points" />
            <mxPoint x="470.25" y="390" as="sourcePoint" />
            <mxPoint as="offset" />
          </mxGeometry>
        </mxCell>
        <mxCell id="Xvs3PHVjeso9eTJmXJPS-211" value="База данных клиентов" style="text;html=1;align=center;verticalAlign=middle;whiteSpace=wrap;rounded=0;fontSize=10;" parent="Xvs3PHVjeso9eTJmXJPS-192" vertex="1">
          <mxGeometry x="615.63" y="58" width="118.75" height="10" as="geometry" />
        </mxCell>
        <mxCell id="Xvs3PHVjeso9eTJmXJPS-212" value="3: получить информацию о клиенте" style="html=1;verticalAlign=bottom;endArrow=block;curved=0;rounded=0;entryX=0;entryY=0;entryDx=0;entryDy=5;" parent="Xvs3PHVjeso9eTJmXJPS-192" source="Xvs3PHVjeso9eTJmXJPS-203" edge="1">
          <mxGeometry relative="1" as="geometry">
            <mxPoint x="600" y="285" as="sourcePoint" />
            <mxPoint x="670.01" y="284.25" as="targetPoint" />
          </mxGeometry>
        </mxCell>
        <mxCell id="Xvs3PHVjeso9eTJmXJPS-213" value="3.1: информация о клиенте" style="html=1;verticalAlign=bottom;endArrow=open;dashed=1;endSize=8;curved=0;rounded=0;exitX=0;exitY=1;exitDx=0;exitDy=-5;" parent="Xvs3PHVjeso9eTJmXJPS-192" edge="1">
          <mxGeometry relative="1" as="geometry">
            <mxPoint x="481.25" y="340" as="targetPoint" />
            <mxPoint x="670" y="340" as="sourcePoint" />
          </mxGeometry>
        </mxCell>
        <mxCell id="Xvs3PHVjeso9eTJmXJPS-214" value="6: оказать услугу" style="html=1;verticalAlign=bottom;endArrow=block;curved=0;rounded=0;entryX=0;entryY=0;entryDx=0;entryDy=5;" parent="Xvs3PHVjeso9eTJmXJPS-192" source="Xvs3PHVjeso9eTJmXJPS-194" target="Xvs3PHVjeso9eTJmXJPS-198" edge="1">
          <mxGeometry relative="1" as="geometry">
            <mxPoint x="70" y="520" as="sourcePoint" />
          </mxGeometry>
        </mxCell>
        <mxCell id="Xvs3PHVjeso9eTJmXJPS-215" value="10: статус записи" style="html=1;verticalAlign=bottom;endArrow=open;dashed=1;endSize=8;curved=0;rounded=0;" parent="Xvs3PHVjeso9eTJmXJPS-192" source="Xvs3PHVjeso9eTJmXJPS-198" target="Xvs3PHVjeso9eTJmXJPS-194" edge="1">
          <mxGeometry relative="1" as="geometry">
            <mxPoint x="70" y="885" as="targetPoint" />
            <Array as="points">
              <mxPoint x="220" y="720" />
            </Array>
          </mxGeometry>
        </mxCell>
        <mxCell id="Xvs3PHVjeso9eTJmXJPS-216" value="7: оказать услугу" style="html=1;verticalAlign=bottom;endArrow=block;curved=0;rounded=0;" parent="Xvs3PHVjeso9eTJmXJPS-192" source="Xvs3PHVjeso9eTJmXJPS-198" target="Xvs3PHVjeso9eTJmXJPS-204" edge="1">
          <mxGeometry x="-0.0002" relative="1" as="geometry">
            <mxPoint x="284.25" y="550" as="sourcePoint" />
            <mxPoint x="495.25" y="550" as="targetPoint" />
            <mxPoint as="offset" />
            <Array as="points">
              <mxPoint x="280" y="540" />
            </Array>
          </mxGeometry>
        </mxCell>
        <mxCell id="Xvs3PHVjeso9eTJmXJPS-230" value="9: статус записи" style="html=1;verticalAlign=bottom;endArrow=open;dashed=1;endSize=8;curved=0;rounded=0;exitX=0;exitY=1;exitDx=0;exitDy=-5;exitPerimeter=0;" parent="Xvs3PHVjeso9eTJmXJPS-192" source="Xvs3PHVjeso9eTJmXJPS-204" target="Xvs3PHVjeso9eTJmXJPS-198" edge="1">
          <mxGeometry relative="1" as="geometry">
            <mxPoint x="270" y="830" as="targetPoint" />
            <mxPoint x="480.25" y="830" as="sourcePoint" />
          </mxGeometry>
        </mxCell>
        <mxCell id="Xvs3PHVjeso9eTJmXJPS-198" value="" style="html=1;points=[[0,0,0,0,5],[0,1,0,0,-5],[1,0,0,0,5],[1,1,0,0,-5]];perimeter=orthogonalPerimeter;outlineConnect=0;targetShapes=umlLifeline;portConstraint=eastwest;newEdgeStyle={&quot;curved&quot;:0,&quot;rounded&quot;:0};" parent="Xvs3PHVjeso9eTJmXJPS-192" vertex="1">
          <mxGeometry x="248.75" y="490" width="10" height="390" as="geometry" />
        </mxCell>
        <mxCell id="Xvs3PHVjeso9eTJmXJPS-228" value="8: изменить статус записи" style="html=1;verticalAlign=bottom;endArrow=block;curved=0;rounded=0;" parent="Xvs3PHVjeso9eTJmXJPS-192" target="Xvs3PHVjeso9eTJmXJPS-210" edge="1">
          <mxGeometry x="-0.0526" y="10" relative="1" as="geometry">
            <mxPoint x="480.25" y="570" as="sourcePoint" />
            <mxPoint as="offset" />
            <mxPoint x="640" y="701" as="targetPoint" />
            <Array as="points">
              <mxPoint x="620" y="570" />
            </Array>
          </mxGeometry>
        </mxCell>
        <mxCell id="Xvs3PHVjeso9eTJmXJPS-229" value="8.1: статус записи" style="html=1;verticalAlign=bottom;endArrow=open;dashed=1;endSize=8;curved=0;rounded=0;" parent="Xvs3PHVjeso9eTJmXJPS-192" source="Xvs3PHVjeso9eTJmXJPS-210" target="Xvs3PHVjeso9eTJmXJPS-204" edge="1">
          <mxGeometry x="-0.027" relative="1" as="geometry">
            <mxPoint x="480.25" y="740" as="targetPoint" />
            <mxPoint x="660" y="740" as="sourcePoint" />
            <Array as="points">
              <mxPoint x="650" y="650" />
              <mxPoint x="620" y="650" />
            </Array>
            <mxPoint as="offset" />
          </mxGeometry>
        </mxCell>
        <mxCell id="Xvs3PHVjeso9eTJmXJPS-210" value="" style="html=1;points=[[0,0,0,0,5],[0,1,0,0,-5],[1,0,0,0,5],[1,1,0,0,-5]];perimeter=orthogonalPerimeter;outlineConnect=0;targetShapes=umlLifeline;portConstraint=eastwest;newEdgeStyle={&quot;curved&quot;:0,&quot;rounded&quot;:0};" parent="Xvs3PHVjeso9eTJmXJPS-192" vertex="1">
          <mxGeometry x="670.01" y="570" width="10" height="80" as="geometry" />
        </mxCell>
        <mxCell id="i_KjWeI83SbuCGtNDoA--193" value="" style="shape=umlLifeline;perimeter=lifelinePerimeter;whiteSpace=wrap;html=1;container=1;dropTarget=0;collapsible=0;recursiveResize=0;outlineConnect=0;portConstraint=eastwest;newEdgeStyle={&quot;curved&quot;:0,&quot;rounded&quot;:0};participant=umlControl;" parent="Xvs3PHVjeso9eTJmXJPS-192" vertex="1">
          <mxGeometry x="840" y="68" width="40" height="880" as="geometry" />
        </mxCell>
        <mxCell id="i_KjWeI83SbuCGtNDoA--198" value="Сервис актов о проделанной работе" style="text;html=1;align=center;verticalAlign=middle;whiteSpace=wrap;rounded=0;fontSize=10;" parent="Xvs3PHVjeso9eTJmXJPS-192" vertex="1">
          <mxGeometry x="800.63" y="56" width="118.75" height="10" as="geometry" />
        </mxCell>
        <mxCell id="i_KjWeI83SbuCGtNDoA--199" value="База данных актов о проделанной работе" style="text;html=1;align=center;verticalAlign=middle;whiteSpace=wrap;rounded=0;fontSize=10;" parent="Xvs3PHVjeso9eTJmXJPS-192" vertex="1">
          <mxGeometry x="1020.39" y="48" width="118.75" height="10" as="geometry" />
        </mxCell>
        <mxCell id="i_KjWeI83SbuCGtNDoA--195" value="" style="html=1;points=[[0,0,0,0,5],[0,1,0,0,-5],[1,0,0,0,5],[1,1,0,0,-5]];perimeter=orthogonalPerimeter;outlineConnect=0;targetShapes=umlLifeline;portConstraint=eastwest;newEdgeStyle={&quot;curved&quot;:0,&quot;rounded&quot;:0};" parent="Xvs3PHVjeso9eTJmXJPS-192" vertex="1">
          <mxGeometry x="855" y="770" width="10" height="90" as="geometry" />
        </mxCell>
        <mxCell id="i_KjWeI83SbuCGtNDoA--200" value="12: добавить акт о проделанной работе" style="html=1;verticalAlign=bottom;endArrow=block;curved=0;rounded=0;" parent="Xvs3PHVjeso9eTJmXJPS-192" edge="1">
          <mxGeometry x="-0.0002" relative="1" as="geometry">
            <mxPoint x="258.75" y="777" as="sourcePoint" />
            <mxPoint x="855.0100000000002" y="777" as="targetPoint" />
            <mxPoint as="offset" />
            <Array as="points" />
          </mxGeometry>
        </mxCell>
        <mxCell id="i_KjWeI83SbuCGtNDoA--197" value="" style="html=1;points=[[0,0,0,0,5],[0,1,0,0,-5],[1,0,0,0,5],[1,1,0,0,-5]];perimeter=orthogonalPerimeter;outlineConnect=0;targetShapes=umlLifeline;portConstraint=eastwest;newEdgeStyle={&quot;curved&quot;:0,&quot;rounded&quot;:0};" parent="Xvs3PHVjeso9eTJmXJPS-192" vertex="1">
          <mxGeometry x="1074.76" y="785" width="10" height="58.75" as="geometry" />
        </mxCell>
        <mxCell id="i_KjWeI83SbuCGtNDoA--201" value="13: добавить акт о проделанной работе" style="html=1;verticalAlign=bottom;endArrow=block;curved=0;rounded=0;" parent="Xvs3PHVjeso9eTJmXJPS-192" edge="1">
          <mxGeometry x="0.0011" relative="1" as="geometry">
            <mxPoint x="865" y="785" as="sourcePoint" />
            <mxPoint x="1074.7600000000002" y="785" as="targetPoint" />
            <mxPoint as="offset" />
            <Array as="points" />
          </mxGeometry>
        </mxCell>
        <mxCell id="i_KjWeI83SbuCGtNDoA--204" value="13.1: статус акта" style="html=1;verticalAlign=bottom;endArrow=open;dashed=1;endSize=8;curved=0;rounded=0;" parent="Xvs3PHVjeso9eTJmXJPS-192" edge="1">
          <mxGeometry x="-0.027" relative="1" as="geometry">
            <mxPoint x="865" y="842" as="targetPoint" />
            <mxPoint x="1074.7600000000002" y="842" as="sourcePoint" />
            <Array as="points">
              <mxPoint x="1060" y="842" />
              <mxPoint x="1000" y="842" />
            </Array>
            <mxPoint as="offset" />
          </mxGeometry>
        </mxCell>
        <mxCell id="i_KjWeI83SbuCGtNDoA--205" value="14: статус акта" style="html=1;verticalAlign=bottom;endArrow=open;dashed=1;endSize=8;curved=0;rounded=0;" parent="Xvs3PHVjeso9eTJmXJPS-192" edge="1">
          <mxGeometry relative="1" as="geometry">
            <mxPoint x="258.75" y="859.0000000000005" as="targetPoint" />
            <mxPoint x="855" y="859.0000000000005" as="sourcePoint" />
          </mxGeometry>
        </mxCell>
        <mxCell id="i_KjWeI83SbuCGtNDoA--208" value="11: добавить акт о проделанной работе" style="html=1;verticalAlign=bottom;endArrow=block;curved=0;rounded=0;entryX=0;entryY=0;entryDx=0;entryDy=5;" parent="Xvs3PHVjeso9eTJmXJPS-192" edge="1">
          <mxGeometry relative="1" as="geometry">
            <mxPoint x="55" y="750.0000000000009" as="sourcePoint" />
            <mxPoint x="248.75" y="750.0000000000009" as="targetPoint" />
          </mxGeometry>
        </mxCell>
        <mxCell id="i_KjWeI83SbuCGtNDoA--211" value="15: статус акта" style="html=1;verticalAlign=bottom;endArrow=open;dashed=1;endSize=8;curved=0;rounded=0;" parent="Xvs3PHVjeso9eTJmXJPS-192" edge="1">
          <mxGeometry relative="1" as="geometry">
            <mxPoint x="53.75999999999999" y="880.0000000000005" as="targetPoint" />
            <mxPoint x="250" y="880" as="sourcePoint" />
          </mxGeometry>
        </mxCell>
        <mxCell id="YR0dXk5SmRrYiJsqpAdZ-66" value="" style="shape=umlLifeline;participant=umlEntity;perimeter=lifelinePerimeter;whiteSpace=wrap;html=1;container=1;collapsible=0;recursiveResize=0;verticalAlign=top;spacingTop=36;outlineConnect=0;strokeWidth=1;" parent="Xvs3PHVjeso9eTJmXJPS-192" vertex="1">
          <mxGeometry x="1057" y="70" width="40" height="880" as="geometry" />
        </mxCell>
        <mxCell id="i_KjWeI83SbuCGtNDoA--10" value="Клиент" style="shape=umlActor;verticalLabelPosition=middle;verticalAlign=middle;html=1;outlineConnect=0;labelPosition=left;align=right;" parent="1" vertex="1">
          <mxGeometry x="-180" y="-650.5" width="30" height="60" as="geometry" />
        </mxCell>
        <mxCell id="i_KjWeI83SbuCGtNDoA--11" value="Забронировать столик" style="ellipse;whiteSpace=wrap;html=1;" parent="1" vertex="1">
          <mxGeometry x="-88" y="-761.5" width="100" height="50" as="geometry" />
        </mxCell>
        <mxCell id="i_KjWeI83SbuCGtNDoA--12" value="" style="endArrow=open;endFill=1;endSize=12;html=1;rounded=0;exitX=1;exitY=0.3333333333333333;exitDx=0;exitDy=0;exitPerimeter=0;entryX=0;entryY=0.5;entryDx=0;entryDy=0;" parent="1" source="i_KjWeI83SbuCGtNDoA--10" target="i_KjWeI83SbuCGtNDoA--11" edge="1">
          <mxGeometry width="160" relative="1" as="geometry">
            <mxPoint x="-70" y="-630.5" as="sourcePoint" />
            <mxPoint x="90" y="-630.5" as="targetPoint" />
          </mxGeometry>
        </mxCell>
        <mxCell id="i_KjWeI83SbuCGtNDoA--20" value="Сформировать заказ" style="ellipse;whiteSpace=wrap;html=1;" parent="1" vertex="1">
          <mxGeometry x="-89" y="-656.5" width="100" height="50" as="geometry" />
        </mxCell>
        <mxCell id="i_KjWeI83SbuCGtNDoA--21" value="" style="endArrow=open;endFill=1;endSize=12;html=1;rounded=0;exitX=1;exitY=0.3333333333333333;exitDx=0;exitDy=0;exitPerimeter=0;entryX=0;entryY=0.5;entryDx=0;entryDy=0;" parent="1" source="i_KjWeI83SbuCGtNDoA--10" target="i_KjWeI83SbuCGtNDoA--20" edge="1">
          <mxGeometry width="160" relative="1" as="geometry">
            <mxPoint x="-170" y="-650.5" as="sourcePoint" />
            <mxPoint x="-80" y="-695.5" as="targetPoint" />
          </mxGeometry>
        </mxCell>
        <mxCell id="i_KjWeI83SbuCGtNDoA--33" value="Принять блюдо" style="ellipse;whiteSpace=wrap;html=1;" parent="1" vertex="1">
          <mxGeometry x="-88" y="-547" width="100" height="50" as="geometry" />
        </mxCell>
        <mxCell id="i_KjWeI83SbuCGtNDoA--34" value="" style="endArrow=open;endFill=1;endSize=12;html=1;rounded=0;exitX=1;exitY=0.3333333333333333;exitDx=0;exitDy=0;exitPerimeter=0;entryX=0;entryY=0.5;entryDx=0;entryDy=0;" parent="1" source="i_KjWeI83SbuCGtNDoA--10" target="i_KjWeI83SbuCGtNDoA--33" edge="1">
          <mxGeometry width="160" relative="1" as="geometry">
            <mxPoint x="-140" y="-620.5" as="sourcePoint" />
            <mxPoint x="-81.3553390593272" y="-522.6776695296635" as="targetPoint" />
          </mxGeometry>
        </mxCell>
        <mxCell id="i_KjWeI83SbuCGtNDoA--36" value="Оффициант" style="shape=umlActor;verticalLabelPosition=bottom;verticalAlign=top;html=1;outlineConnect=0;" parent="1" vertex="1">
          <mxGeometry x="-202" y="-357.75" width="30" height="60" as="geometry" />
        </mxCell>
        <mxCell id="i_KjWeI83SbuCGtNDoA--38" value="Оказать услугу" style="ellipse;whiteSpace=wrap;html=1;" parent="1" vertex="1">
          <mxGeometry x="-58" y="-360" width="106" height="60" as="geometry" />
        </mxCell>
        <mxCell id="i_KjWeI83SbuCGtNDoA--39" value="" style="endArrow=open;endFill=1;endSize=12;html=1;rounded=0;entryX=0;entryY=0.5;entryDx=0;entryDy=0;exitX=1;exitY=0.3333333333333333;exitDx=0;exitDy=0;exitPerimeter=0;" parent="1" source="i_KjWeI83SbuCGtNDoA--36" target="i_KjWeI83SbuCGtNDoA--38" edge="1">
          <mxGeometry width="160" relative="1" as="geometry">
            <mxPoint x="-162" y="-327.75" as="sourcePoint" />
            <mxPoint x="-72" y="-359.75" as="targetPoint" />
          </mxGeometry>
        </mxCell>
        <mxCell id="i_KjWeI83SbuCGtNDoA--43" value="Предоставить блюдо" style="ellipse;whiteSpace=wrap;html=1;" parent="1" vertex="1">
          <mxGeometry x="-60" y="-240" width="110" height="65" as="geometry" />
        </mxCell>
        <mxCell id="i_KjWeI83SbuCGtNDoA--44" value="" style="endArrow=open;endFill=1;endSize=12;html=1;rounded=0;entryX=0.057;entryY=0.199;entryDx=0;entryDy=0;entryPerimeter=0;" parent="1" target="i_KjWeI83SbuCGtNDoA--43" edge="1">
          <mxGeometry width="160" relative="1" as="geometry">
            <mxPoint x="-170" y="-337.75" as="sourcePoint" />
            <mxPoint x="-97.99999999999795" y="-287.75" as="targetPoint" />
          </mxGeometry>
        </mxCell>
        <mxCell id="i_KjWeI83SbuCGtNDoA--45" value="Получить заказ блюд" style="ellipse;whiteSpace=wrap;html=1;" parent="1" vertex="1">
          <mxGeometry x="-62" y="-457" width="110" height="55" as="geometry" />
        </mxCell>
        <mxCell id="i_KjWeI83SbuCGtNDoA--46" value="" style="endArrow=open;endFill=1;endSize=12;html=1;rounded=0;entryX=0;entryY=0.5;entryDx=0;entryDy=0;" parent="1" target="i_KjWeI83SbuCGtNDoA--45" edge="1">
          <mxGeometry width="160" relative="1" as="geometry">
            <mxPoint x="-172" y="-337.75" as="sourcePoint" />
            <mxPoint x="-92" y="-370.25" as="targetPoint" />
          </mxGeometry>
        </mxCell>
        <mxCell id="i_KjWeI83SbuCGtNDoA--47" value="&quot;include&quot;" style="endArrow=open;html=1;rounded=0;align=center;verticalAlign=bottom;dashed=1;endFill=0;labelBackgroundColor=none;entryX=0.5;entryY=0;entryDx=0;entryDy=0;exitX=0.5;exitY=1;exitDx=0;exitDy=0;" parent="1" source="i_KjWeI83SbuCGtNDoA--38" target="i_KjWeI83SbuCGtNDoA--43" edge="1">
          <mxGeometry x="-0.1605" y="1" relative="1" as="geometry">
            <mxPoint x="6" y="-232.75" as="sourcePoint" />
            <mxPoint x="66.00000000000023" y="-235.25" as="targetPoint" />
            <mxPoint as="offset" />
          </mxGeometry>
        </mxCell>
        <mxCell id="i_KjWeI83SbuCGtNDoA--50" value="Передать данные о себе" style="ellipse;whiteSpace=wrap;html=1;" parent="1" vertex="1">
          <mxGeometry x="87" y="-766" width="110" height="59" as="geometry" />
        </mxCell>
        <mxCell id="i_KjWeI83SbuCGtNDoA--52" value="&quot;include&quot;" style="endArrow=open;html=1;rounded=0;align=center;verticalAlign=bottom;dashed=1;endFill=0;labelBackgroundColor=none;exitX=1;exitY=0.5;exitDx=0;exitDy=0;entryX=0;entryY=0.5;entryDx=0;entryDy=0;" parent="1" source="i_KjWeI83SbuCGtNDoA--11" target="i_KjWeI83SbuCGtNDoA--50" edge="1">
          <mxGeometry x="-0.1605" y="1" relative="1" as="geometry">
            <mxPoint x="-223.64466094067257" y="-670.8376695296638" as="sourcePoint" />
            <mxPoint x="-60" y="-671.5" as="targetPoint" />
            <mxPoint as="offset" />
          </mxGeometry>
        </mxCell>
        <mxCell id="i_KjWeI83SbuCGtNDoA--57" value="Администратор" style="shape=umlActor;verticalLabelPosition=bottom;verticalAlign=top;html=1;outlineConnect=0;" parent="1" vertex="1">
          <mxGeometry x="-160" y="-966.25" width="30" height="60" as="geometry" />
        </mxCell>
        <mxCell id="i_KjWeI83SbuCGtNDoA--58" value="Сформировать запись на бронирование" style="ellipse;whiteSpace=wrap;html=1;" parent="1" vertex="1">
          <mxGeometry x="-9" y="-1061.75" width="116" height="60" as="geometry" />
        </mxCell>
        <mxCell id="i_KjWeI83SbuCGtNDoA--60" value="" style="endArrow=open;endFill=1;endSize=12;html=1;rounded=0;entryX=0;entryY=0.5;entryDx=0;entryDy=0;" parent="1" target="i_KjWeI83SbuCGtNDoA--58" edge="1">
          <mxGeometry width="160" relative="1" as="geometry">
            <mxPoint x="-130" y="-950" as="sourcePoint" />
            <mxPoint x="-190" y="-1081.25" as="targetPoint" />
          </mxGeometry>
        </mxCell>
        <mxCell id="i_KjWeI83SbuCGtNDoA--62" value="Сформировать расписание ресторана" style="ellipse;whiteSpace=wrap;html=1;" parent="1" vertex="1">
          <mxGeometry x="-9" y="-880" width="116" height="60" as="geometry" />
        </mxCell>
        <mxCell id="i_KjWeI83SbuCGtNDoA--63" value="" style="endArrow=open;endFill=1;endSize=12;html=1;rounded=0;exitX=1;exitY=0.3333333333333333;exitDx=0;exitDy=0;exitPerimeter=0;entryX=0;entryY=0.5;entryDx=0;entryDy=0;" parent="1" source="i_KjWeI83SbuCGtNDoA--57" target="i_KjWeI83SbuCGtNDoA--62" edge="1">
          <mxGeometry width="160" relative="1" as="geometry">
            <mxPoint x="-120" y="-936.25" as="sourcePoint" />
            <mxPoint x="-60" y="-976.25" as="targetPoint" />
          </mxGeometry>
        </mxCell>
        <mxCell id="i_KjWeI83SbuCGtNDoA--66" value="Встретить гостя" style="ellipse;whiteSpace=wrap;html=1;" parent="1" vertex="1">
          <mxGeometry x="-9" y="-974.75" width="116" height="60" as="geometry" />
        </mxCell>
        <mxCell id="i_KjWeI83SbuCGtNDoA--68" value="" style="endArrow=open;endFill=1;endSize=12;html=1;rounded=0;exitX=1;exitY=0.3333333333333333;exitDx=0;exitDy=0;exitPerimeter=0;entryX=0;entryY=0.5;entryDx=0;entryDy=0;" parent="1" source="i_KjWeI83SbuCGtNDoA--57" target="i_KjWeI83SbuCGtNDoA--66" edge="1">
          <mxGeometry width="160" relative="1" as="geometry">
            <mxPoint x="-120" y="-936.25" as="sourcePoint" />
            <mxPoint x="22.000000000002046" y="-791.25" as="targetPoint" />
          </mxGeometry>
        </mxCell>
        <mxCell id="i_KjWeI83SbuCGtNDoA--112" value="&lt;span style=&quot;font-size: 10px; text-wrap: wrap;&quot;&gt;Администратор&lt;/span&gt;" style="shape=umlActor;verticalLabelPosition=bottom;verticalAlign=top;html=1;" parent="1" vertex="1">
          <mxGeometry x="1480" y="133.5" width="30" height="60" as="geometry" />
        </mxCell>
        <mxCell id="i_KjWeI83SbuCGtNDoA--113" value="&lt;span style=&quot;font-size: 10px;&quot;&gt;Сервис Администратора&lt;/span&gt;" style="shape=umlBoundary;whiteSpace=wrap;html=1;" parent="1" vertex="1">
          <mxGeometry x="1725.62" y="123.5" width="100" height="80" as="geometry" />
        </mxCell>
        <mxCell id="i_KjWeI83SbuCGtNDoA--114" value="" style="endArrow=none;html=1;rounded=0;strokeWidth=1;targetPerimeterSpacing=15;sourcePerimeterSpacing=15;" parent="1" source="i_KjWeI83SbuCGtNDoA--113" target="i_KjWeI83SbuCGtNDoA--115" edge="1">
          <mxGeometry relative="1" as="geometry">
            <mxPoint x="1850.37" y="142.97000000000003" as="sourcePoint" />
            <mxPoint x="2034.37" y="142.97000000000003" as="targetPoint" />
          </mxGeometry>
        </mxCell>
        <mxCell id="i_KjWeI83SbuCGtNDoA--115" value="&lt;span style=&quot;font-size: 10px;&quot;&gt;Сервис записей&lt;/span&gt;" style="ellipse;shape=umlControl;whiteSpace=wrap;html=1;" parent="1" vertex="1">
          <mxGeometry x="1730" y="300.25" width="91.25" height="96.5" as="geometry" />
        </mxCell>
        <mxCell id="i_KjWeI83SbuCGtNDoA--116" value="" style="endArrow=none;html=1;rounded=0;strokeWidth=1;targetPerimeterSpacing=15;sourcePerimeterSpacing=15;" parent="1" source="i_KjWeI83SbuCGtNDoA--112" target="i_KjWeI83SbuCGtNDoA--113" edge="1">
          <mxGeometry relative="1" as="geometry">
            <mxPoint x="1535.37" y="153.5" as="sourcePoint" />
            <mxPoint x="1719.37" y="153.5" as="targetPoint" />
          </mxGeometry>
        </mxCell>
        <mxCell id="i_KjWeI83SbuCGtNDoA--118" value="" style="endArrow=none;html=1;rounded=0;strokeWidth=1;targetPerimeterSpacing=15;sourcePerimeterSpacing=15;" parent="1" source="i_KjWeI83SbuCGtNDoA--115" edge="1">
          <mxGeometry relative="1" as="geometry">
            <mxPoint x="1447.869999999995" y="513.5" as="sourcePoint" />
            <mxPoint x="1604.37" y="348.5" as="targetPoint" />
          </mxGeometry>
        </mxCell>
        <mxCell id="i_KjWeI83SbuCGtNDoA--119" value="" style="html=1;verticalAlign=bottom;endArrow=block;curved=0;rounded=0;" parent="1" edge="1">
          <mxGeometry width="80" relative="1" as="geometry">
            <mxPoint x="1572.87" y="157" as="sourcePoint" />
            <mxPoint x="1652.87" y="157" as="targetPoint" />
          </mxGeometry>
        </mxCell>
        <mxCell id="i_KjWeI83SbuCGtNDoA--120" value="" style="html=1;verticalAlign=bottom;endArrow=block;curved=0;rounded=0;" parent="1" edge="1">
          <mxGeometry width="80" relative="1" as="geometry">
            <mxPoint x="1795.37" y="222.5" as="sourcePoint" />
            <mxPoint x="1795.37" y="262.5" as="targetPoint" />
          </mxGeometry>
        </mxCell>
        <mxCell id="i_KjWeI83SbuCGtNDoA--126" value="" style="html=1;verticalAlign=bottom;endArrow=block;curved=0;rounded=0;" parent="1" edge="1">
          <mxGeometry width="80" relative="1" as="geometry">
            <mxPoint x="1760.37" y="263.5" as="sourcePoint" />
            <mxPoint x="1760.37" y="223.5" as="targetPoint" />
          </mxGeometry>
        </mxCell>
        <mxCell id="i_KjWeI83SbuCGtNDoA--127" value="&lt;span style=&quot;font-size: 11px; background-color: rgb(255, 255, 255);&quot;&gt;4: информация о&amp;nbsp;&lt;/span&gt;&lt;span style=&quot;font-size: 11px; text-wrap: nowrap; background-color: rgb(255, 255, 255);&quot;&gt;клиенте&lt;/span&gt;" style="text;html=1;align=center;verticalAlign=middle;whiteSpace=wrap;rounded=0;" parent="1" vertex="1">
          <mxGeometry x="1605.62" y="229.5" width="146" height="10" as="geometry" />
        </mxCell>
        <mxCell id="i_KjWeI83SbuCGtNDoA--128" value="" style="html=1;verticalAlign=bottom;endArrow=block;curved=0;rounded=0;" parent="1" edge="1">
          <mxGeometry width="80" relative="1" as="geometry">
            <mxPoint x="1650.37" y="173" as="sourcePoint" />
            <mxPoint x="1570.37" y="173" as="targetPoint" />
          </mxGeometry>
        </mxCell>
        <mxCell id="i_KjWeI83SbuCGtNDoA--129" value="&lt;span style=&quot;font-size: 11px; text-wrap: nowrap; background-color: rgb(255, 255, 255);&quot;&gt;5: информация о клиенте&lt;/span&gt;" style="text;html=1;align=center;verticalAlign=middle;whiteSpace=wrap;rounded=0;" parent="1" vertex="1">
          <mxGeometry x="1549.87" y="183" width="139.5" height="10" as="geometry" />
        </mxCell>
        <mxCell id="i_KjWeI83SbuCGtNDoA--130" value="&lt;br&gt;&lt;span style=&quot;color: rgb(0, 0, 0); font-family: Helvetica; font-size: 11px; font-style: normal; font-variant-ligatures: normal; font-variant-caps: normal; font-weight: 400; letter-spacing: normal; orphans: 2; text-align: center; text-indent: 0px; text-transform: none; widows: 2; word-spacing: 0px; -webkit-text-stroke-width: 0px; white-space: nowrap; background-color: rgb(255, 255, 255); text-decoration-thickness: initial; text-decoration-style: initial; text-decoration-color: initial; display: inline !important; float: none;&quot;&gt;2: получить информацию о&amp;nbsp;&lt;/span&gt;&lt;span style=&quot;font-size: 11px; text-wrap: nowrap; background-color: rgb(255, 255, 255);&quot;&gt;клиенте&lt;/span&gt;" style="text;html=1;align=center;verticalAlign=middle;whiteSpace=wrap;rounded=0;" parent="1" vertex="1">
          <mxGeometry x="1829.37" y="223.5" width="120" height="10" as="geometry" />
        </mxCell>
        <mxCell id="i_KjWeI83SbuCGtNDoA--132" value="&lt;span style=&quot;font-size: 11px; text-wrap: nowrap; background-color: rgb(255, 255, 255);&quot;&gt;6: оказать услугу&lt;/span&gt;" style="text;html=1;align=center;verticalAlign=middle;whiteSpace=wrap;rounded=0;" parent="1" vertex="1">
          <mxGeometry x="1564.37" y="123.5" width="103" height="10" as="geometry" />
        </mxCell>
        <mxCell id="i_KjWeI83SbuCGtNDoA--133" value="&lt;span style=&quot;font-size: 11px; text-wrap: nowrap; background-color: rgb(255, 255, 255);&quot;&gt;1: принять клиента&lt;/span&gt;" style="text;html=1;align=center;verticalAlign=middle;whiteSpace=wrap;rounded=0;" parent="1" vertex="1">
          <mxGeometry x="1575.37" y="110.5" width="120" height="10" as="geometry" />
        </mxCell>
        <mxCell id="i_KjWeI83SbuCGtNDoA--134" value="&lt;span style=&quot;font-size: 11px; text-wrap: nowrap; background-color: rgb(255, 255, 255);&quot;&gt;10: статус записи&lt;/span&gt;" style="text;html=1;align=center;verticalAlign=middle;whiteSpace=wrap;rounded=0;" parent="1" vertex="1">
          <mxGeometry x="1558.37" y="197" width="120" height="10" as="geometry" />
        </mxCell>
        <mxCell id="i_KjWeI83SbuCGtNDoA--139" value="&lt;span style=&quot;font-size: 11px; text-wrap: nowrap; background-color: rgb(255, 255, 255);&quot;&gt;7: оказать услугу&lt;/span&gt;" style="text;html=1;align=center;verticalAlign=middle;whiteSpace=wrap;rounded=0;" parent="1" vertex="1">
          <mxGeometry x="1795.37" y="243.5" width="120" height="10" as="geometry" />
        </mxCell>
        <mxCell id="i_KjWeI83SbuCGtNDoA--140" value="&lt;span style=&quot;font-size: 11px; text-wrap: nowrap; background-color: rgb(255, 255, 255);&quot;&gt;9: статус&amp;nbsp;&lt;/span&gt;&lt;span style=&quot;font-size: 11px; text-wrap: nowrap; background-color: rgb(255, 255, 255);&quot;&gt;клиента&lt;/span&gt;" style="text;html=1;align=center;verticalAlign=middle;whiteSpace=wrap;rounded=0;" parent="1" vertex="1">
          <mxGeometry x="1638.62" y="243.5" width="120" height="10" as="geometry" />
        </mxCell>
        <mxCell id="i_KjWeI83SbuCGtNDoA--144" value="&lt;span style=&quot;font-size: 11px; text-wrap: nowrap; background-color: rgb(255, 255, 255);&quot;&gt;8: изменить статус&amp;nbsp;&lt;/span&gt;&lt;span style=&quot;font-size: 11px; text-wrap: nowrap; background-color: rgb(255, 255, 255);&quot;&gt;клиента&lt;/span&gt;" style="text;html=1;align=center;verticalAlign=middle;whiteSpace=wrap;rounded=0;" parent="1" vertex="1">
          <mxGeometry x="1594.12" y="410" width="143" height="10" as="geometry" />
        </mxCell>
        <mxCell id="i_KjWeI83SbuCGtNDoA--145" value="&lt;span style=&quot;font-size: 11px; text-wrap: nowrap; background-color: rgb(255, 255, 255);&quot;&gt;3: получить информацию о&amp;nbsp;&lt;/span&gt;&lt;span style=&quot;font-size: 11px; text-wrap: nowrap; background-color: rgb(255, 255, 255);&quot;&gt;клиенте&lt;/span&gt;" style="text;html=1;align=center;verticalAlign=middle;whiteSpace=wrap;rounded=0;" parent="1" vertex="1">
          <mxGeometry x="1605.62" y="388.25" width="120" height="8.5" as="geometry" />
        </mxCell>
        <mxCell id="i_KjWeI83SbuCGtNDoA--146" value="" style="html=1;verticalAlign=bottom;endArrow=block;curved=0;rounded=0;" parent="1" edge="1">
          <mxGeometry width="80" relative="1" as="geometry">
            <mxPoint x="1689.37" y="370" as="sourcePoint" />
            <mxPoint x="1619.37" y="370" as="targetPoint" />
          </mxGeometry>
        </mxCell>
        <mxCell id="i_KjWeI83SbuCGtNDoA--147" value="" style="html=1;verticalAlign=bottom;endArrow=block;curved=0;rounded=0;" parent="1" edge="1">
          <mxGeometry width="80" relative="1" as="geometry">
            <mxPoint x="1619.37" y="340" as="sourcePoint" />
            <mxPoint x="1689.37" y="340" as="targetPoint" />
          </mxGeometry>
        </mxCell>
        <mxCell id="i_KjWeI83SbuCGtNDoA--148" value="&lt;span style=&quot;font-size: 11px; text-wrap: nowrap; background-color: rgb(255, 255, 255);&quot;&gt;8.1: состояние записи о&amp;nbsp;&lt;/span&gt;&lt;span style=&quot;font-size: 11px; text-wrap: nowrap; background-color: rgb(255, 255, 255);&quot;&gt;клиенте&lt;/span&gt;" style="text;html=1;align=center;verticalAlign=middle;whiteSpace=wrap;rounded=0;" parent="1" vertex="1">
          <mxGeometry x="1596.37" y="310.5" width="120" height="10" as="geometry" />
        </mxCell>
        <mxCell id="i_KjWeI83SbuCGtNDoA--149" value="&lt;span style=&quot;font-size: 11px; text-wrap: nowrap; background-color: rgb(255, 255, 255);&quot;&gt;3.1: информация о&amp;nbsp;&lt;/span&gt;&lt;span style=&quot;font-size: 11px; text-wrap: nowrap; background-color: rgb(255, 255, 255);&quot;&gt;клиенте&lt;/span&gt;" style="text;html=1;align=center;verticalAlign=middle;whiteSpace=wrap;rounded=0;" parent="1" vertex="1">
          <mxGeometry x="1589.37" y="293.5" width="120" height="10" as="geometry" />
        </mxCell>
        <mxCell id="i_KjWeI83SbuCGtNDoA--212" value="&lt;span style=&quot;font-size: 10px;&quot;&gt;Сервис актов о проделанной работе&lt;/span&gt;" style="ellipse;shape=umlControl;whiteSpace=wrap;html=1;" parent="1" vertex="1">
          <mxGeometry x="1949.37" y="107" width="91.25" height="96.5" as="geometry" />
        </mxCell>
        <mxCell id="i_KjWeI83SbuCGtNDoA--214" value="&lt;span style=&quot;font-size: 11px; text-wrap: nowrap; background-color: rgb(255, 255, 255);&quot;&gt;11: добавить акт о проделанной работе&lt;/span&gt;" style="text;html=1;align=center;verticalAlign=middle;whiteSpace=wrap;rounded=0;" parent="1" vertex="1">
          <mxGeometry x="1508.37" y="140" width="220" height="10" as="geometry" />
        </mxCell>
        <mxCell id="i_KjWeI83SbuCGtNDoA--216" value="" style="html=1;verticalAlign=bottom;endArrow=block;curved=0;rounded=0;" parent="1" edge="1">
          <mxGeometry width="80" relative="1" as="geometry">
            <mxPoint x="1835.3100000000002" y="149.30999999999997" as="sourcePoint" />
            <mxPoint x="1943.43" y="149.67" as="targetPoint" />
          </mxGeometry>
        </mxCell>
        <mxCell id="i_KjWeI83SbuCGtNDoA--217" value="&lt;span style=&quot;font-size: 11px; text-wrap: nowrap; background-color: rgb(255, 255, 255);&quot;&gt;12: добавить акт &lt;br&gt;о проделанной работе&lt;/span&gt;" style="text;html=1;align=center;verticalAlign=middle;whiteSpace=wrap;rounded=0;" parent="1" vertex="1">
          <mxGeometry x="1779.37" y="123.5" width="220" height="10" as="geometry" />
        </mxCell>
        <mxCell id="i_KjWeI83SbuCGtNDoA--219" value="" style="html=1;verticalAlign=bottom;endArrow=block;curved=0;rounded=0;" parent="1" edge="1">
          <mxGeometry width="80" relative="1" as="geometry">
            <mxPoint x="2055.31" y="144.66000000000034" as="sourcePoint" />
            <mxPoint x="2163.43" y="145.02" as="targetPoint" />
          </mxGeometry>
        </mxCell>
        <mxCell id="i_KjWeI83SbuCGtNDoA--220" value="&lt;span style=&quot;font-size: 11px; text-wrap: nowrap; background-color: rgb(255, 255, 255);&quot;&gt;13: добавить акт &lt;br&gt;о проделанной работе&lt;/span&gt;" style="text;html=1;align=center;verticalAlign=middle;whiteSpace=wrap;rounded=0;" parent="1" vertex="1">
          <mxGeometry x="1999.37" y="123.5" width="220" height="10" as="geometry" />
        </mxCell>
        <mxCell id="i_KjWeI83SbuCGtNDoA--221" value="" style="endArrow=none;html=1;rounded=0;strokeWidth=1;targetPerimeterSpacing=15;sourcePerimeterSpacing=15;exitX=1.004;exitY=0.46;exitDx=0;exitDy=0;exitPerimeter=0;entryX=-0.033;entryY=0.564;entryDx=0;entryDy=0;entryPerimeter=0;" parent="1" source="i_KjWeI83SbuCGtNDoA--113" target="i_KjWeI83SbuCGtNDoA--212" edge="1">
          <mxGeometry relative="1" as="geometry">
            <mxPoint x="1829.3722587268994" y="162.75" as="sourcePoint" />
            <mxPoint x="1829.375" y="229.5" as="targetPoint" />
          </mxGeometry>
        </mxCell>
        <mxCell id="i_KjWeI83SbuCGtNDoA--222" value="" style="endArrow=none;html=1;rounded=0;strokeWidth=1;targetPerimeterSpacing=15;sourcePerimeterSpacing=15;exitX=1.001;exitY=0.529;exitDx=0;exitDy=0;exitPerimeter=0;entryX=-0.02;entryY=0.483;entryDx=0;entryDy=0;entryPerimeter=0;" parent="1" source="i_KjWeI83SbuCGtNDoA--212" edge="1">
          <mxGeometry relative="1" as="geometry">
            <mxPoint x="2049.2" y="154.6899999999997" as="sourcePoint" />
            <mxPoint x="2188" y="159.13999999999987" as="targetPoint" />
          </mxGeometry>
        </mxCell>
        <mxCell id="i_KjWeI83SbuCGtNDoA--223" value="" style="html=1;verticalAlign=bottom;endArrow=block;curved=0;rounded=0;" parent="1" edge="1">
          <mxGeometry width="80" relative="1" as="geometry">
            <mxPoint x="2170" y="170" as="sourcePoint" />
            <mxPoint x="2050" y="169.99999999999955" as="targetPoint" />
          </mxGeometry>
        </mxCell>
        <mxCell id="i_KjWeI83SbuCGtNDoA--224" value="&lt;span style=&quot;font-size: 11px; text-wrap: nowrap; background-color: rgb(255, 255, 255);&quot;&gt;13.1: добавить акт &lt;br&gt;о проделанной работе&lt;/span&gt;" style="text;html=1;align=center;verticalAlign=middle;whiteSpace=wrap;rounded=0;" parent="1" vertex="1">
          <mxGeometry x="1999.37" y="193" width="220" height="10" as="geometry" />
        </mxCell>
        <mxCell id="i_KjWeI83SbuCGtNDoA--225" value="" style="html=1;verticalAlign=bottom;endArrow=block;curved=0;rounded=0;" parent="1" edge="1">
          <mxGeometry width="80" relative="1" as="geometry">
            <mxPoint x="1946.9999999999995" y="172" as="sourcePoint" />
            <mxPoint x="1826.9999999999995" y="171.99999999999955" as="targetPoint" />
          </mxGeometry>
        </mxCell>
        <mxCell id="i_KjWeI83SbuCGtNDoA--226" value="&lt;span style=&quot;font-size: 11px; text-wrap: nowrap; background-color: rgb(255, 255, 255);&quot;&gt;14: статус акта&lt;br&gt;&lt;/span&gt;" style="text;html=1;align=center;verticalAlign=middle;whiteSpace=wrap;rounded=0;" parent="1" vertex="1">
          <mxGeometry x="1771.25" y="183" width="220" height="10" as="geometry" />
        </mxCell>
        <mxCell id="i_KjWeI83SbuCGtNDoA--227" value="&lt;span style=&quot;font-size: 11px; text-wrap: nowrap; background-color: rgb(255, 255, 255);&quot;&gt;15: статус акта&lt;/span&gt;" style="text;html=1;align=center;verticalAlign=middle;whiteSpace=wrap;rounded=0;" parent="1" vertex="1">
          <mxGeometry x="1558.37" y="210" width="120" height="10" as="geometry" />
        </mxCell>
        <mxCell id="YR0dXk5SmRrYiJsqpAdZ-62" value="&lt;span style=&quot;font-size: 10px;&quot;&gt;База данных актов о проделанной работе&lt;/span&gt;" style="ellipse;shape=umlEntity;whiteSpace=wrap;html=1;strokeWidth=1;" parent="1" vertex="1">
          <mxGeometry x="2190" y="117" width="95" height="80" as="geometry" />
        </mxCell>
        <mxCell id="YR0dXk5SmRrYiJsqpAdZ-63" value="&lt;span style=&quot;font-size: 10px;&quot;&gt;База данных записей&lt;/span&gt;" style="ellipse;shape=umlEntity;whiteSpace=wrap;html=1;strokeWidth=1;" parent="1" vertex="1">
          <mxGeometry x="1499.12" y="310.5" width="95" height="80" as="geometry" />
        </mxCell>
        <mxCell id="lZB2s9_LXxr9yZhgt-A8-4" value="Передать информацию о пожеланиях" style="ellipse;whiteSpace=wrap;html=1;" vertex="1" parent="1">
          <mxGeometry x="87" y="-660.5" width="110" height="59" as="geometry" />
        </mxCell>
        <mxCell id="lZB2s9_LXxr9yZhgt-A8-6" value="&quot;include&quot;" style="endArrow=open;html=1;rounded=0;align=center;verticalAlign=bottom;dashed=1;endFill=0;labelBackgroundColor=none;exitX=1;exitY=0.5;exitDx=0;exitDy=0;entryX=0;entryY=0.5;entryDx=0;entryDy=0;" edge="1" parent="1">
          <mxGeometry x="-0.1605" y="1" relative="1" as="geometry">
            <mxPoint x="12" y="-632.09" as="sourcePoint" />
            <mxPoint x="87" y="-632.09" as="targetPoint" />
            <mxPoint as="offset" />
          </mxGeometry>
        </mxCell>
        <mxCell id="lZB2s9_LXxr9yZhgt-A8-7" value="&amp;lt;&amp;lt;Entity&amp;gt;&amp;gt;&lt;br&gt;Клиент" style="swimlane;fontStyle=1;align=center;verticalAlign=top;childLayout=stackLayout;horizontal=1;startSize=40;horizontalStack=0;resizeParent=1;resizeParentMax=0;resizeLast=0;collapsible=1;marginBottom=0;whiteSpace=wrap;html=1;" vertex="1" parent="1">
          <mxGeometry x="1234" y="-856.25" width="160" height="170" as="geometry" />
        </mxCell>
        <mxCell id="lZB2s9_LXxr9yZhgt-A8-8" value="+ ФИО: String" style="text;strokeColor=none;fillColor=none;align=left;verticalAlign=top;spacingLeft=4;spacingRight=4;overflow=hidden;rotatable=0;points=[[0,0.5],[1,0.5]];portConstraint=eastwest;whiteSpace=wrap;html=1;" vertex="1" parent="lZB2s9_LXxr9yZhgt-A8-7">
          <mxGeometry y="40" width="160" height="26" as="geometry" />
        </mxCell>
        <mxCell id="lZB2s9_LXxr9yZhgt-A8-9" value="+ телефон: String" style="text;strokeColor=none;fillColor=none;align=left;verticalAlign=top;spacingLeft=4;spacingRight=4;overflow=hidden;rotatable=0;points=[[0,0.5],[1,0.5]];portConstraint=eastwest;whiteSpace=wrap;html=1;" vertex="1" parent="lZB2s9_LXxr9yZhgt-A8-7">
          <mxGeometry y="66" width="160" height="26" as="geometry" />
        </mxCell>
        <mxCell id="lZB2s9_LXxr9yZhgt-A8-10" value="+ возраст: Integer" style="text;strokeColor=none;fillColor=none;align=left;verticalAlign=top;spacingLeft=4;spacingRight=4;overflow=hidden;rotatable=0;points=[[0,0.5],[1,0.5]];portConstraint=eastwest;whiteSpace=wrap;html=1;" vertex="1" parent="lZB2s9_LXxr9yZhgt-A8-7">
          <mxGeometry y="92" width="160" height="26" as="geometry" />
        </mxCell>
        <mxCell id="lZB2s9_LXxr9yZhgt-A8-11" value="+ пол: String" style="text;strokeColor=none;fillColor=none;align=left;verticalAlign=top;spacingLeft=4;spacingRight=4;overflow=hidden;rotatable=0;points=[[0,0.5],[1,0.5]];portConstraint=eastwest;whiteSpace=wrap;html=1;" vertex="1" parent="lZB2s9_LXxr9yZhgt-A8-7">
          <mxGeometry y="118" width="160" height="26" as="geometry" />
        </mxCell>
        <mxCell id="lZB2s9_LXxr9yZhgt-A8-12" value="+ Заказы: Заказ[...]" style="text;strokeColor=none;fillColor=none;align=left;verticalAlign=top;spacingLeft=4;spacingRight=4;overflow=hidden;rotatable=0;points=[[0,0.5],[1,0.5]];portConstraint=eastwest;whiteSpace=wrap;html=1;" vertex="1" parent="lZB2s9_LXxr9yZhgt-A8-7">
          <mxGeometry y="144" width="160" height="26" as="geometry" />
        </mxCell>
        <mxCell id="lZB2s9_LXxr9yZhgt-A8-13" value="&amp;lt;&amp;lt;Entity&amp;gt;&amp;gt;&lt;br&gt;Блюдо" style="swimlane;fontStyle=1;align=center;verticalAlign=top;childLayout=stackLayout;horizontal=1;startSize=40;horizontalStack=0;resizeParent=1;resizeParentMax=0;resizeLast=0;collapsible=1;marginBottom=0;whiteSpace=wrap;html=1;" vertex="1" parent="1">
          <mxGeometry x="920" y="-818.5" width="160" height="118" as="geometry" />
        </mxCell>
        <mxCell id="lZB2s9_LXxr9yZhgt-A8-14" value="+ id блюда: Integer" style="text;strokeColor=none;fillColor=none;align=left;verticalAlign=top;spacingLeft=4;spacingRight=4;overflow=hidden;rotatable=0;points=[[0,0.5],[1,0.5]];portConstraint=eastwest;whiteSpace=wrap;html=1;" vertex="1" parent="lZB2s9_LXxr9yZhgt-A8-13">
          <mxGeometry y="40" width="160" height="26" as="geometry" />
        </mxCell>
        <mxCell id="lZB2s9_LXxr9yZhgt-A8-15" value="+ название: String" style="text;strokeColor=none;fillColor=none;align=left;verticalAlign=top;spacingLeft=4;spacingRight=4;overflow=hidden;rotatable=0;points=[[0,0.5],[1,0.5]];portConstraint=eastwest;whiteSpace=wrap;html=1;" vertex="1" parent="lZB2s9_LXxr9yZhgt-A8-13">
          <mxGeometry y="66" width="160" height="26" as="geometry" />
        </mxCell>
        <mxCell id="lZB2s9_LXxr9yZhgt-A8-16" value="+ id заказа: Заказ" style="text;strokeColor=none;fillColor=none;align=left;verticalAlign=top;spacingLeft=4;spacingRight=4;overflow=hidden;rotatable=0;points=[[0,0.5],[1,0.5]];portConstraint=eastwest;whiteSpace=wrap;html=1;" vertex="1" parent="lZB2s9_LXxr9yZhgt-A8-13">
          <mxGeometry y="92" width="160" height="26" as="geometry" />
        </mxCell>
        <mxCell id="lZB2s9_LXxr9yZhgt-A8-17" value="&amp;lt;&amp;lt;Entity&amp;gt;&amp;gt;&lt;br&gt;Администратор" style="swimlane;fontStyle=1;align=center;verticalAlign=top;childLayout=stackLayout;horizontal=1;startSize=40;horizontalStack=0;resizeParent=1;resizeParentMax=0;resizeLast=0;collapsible=1;marginBottom=0;whiteSpace=wrap;html=1;" vertex="1" parent="1">
          <mxGeometry x="1603.5" y="-841.75" width="160" height="144" as="geometry" />
        </mxCell>
        <mxCell id="lZB2s9_LXxr9yZhgt-A8-18" value="+ ФИО: String" style="text;strokeColor=none;fillColor=none;align=left;verticalAlign=top;spacingLeft=4;spacingRight=4;overflow=hidden;rotatable=0;points=[[0,0.5],[1,0.5]];portConstraint=eastwest;whiteSpace=wrap;html=1;" vertex="1" parent="lZB2s9_LXxr9yZhgt-A8-17">
          <mxGeometry y="40" width="160" height="26" as="geometry" />
        </mxCell>
        <mxCell id="lZB2s9_LXxr9yZhgt-A8-19" value="+ телефон: String" style="text;strokeColor=none;fillColor=none;align=left;verticalAlign=top;spacingLeft=4;spacingRight=4;overflow=hidden;rotatable=0;points=[[0,0.5],[1,0.5]];portConstraint=eastwest;whiteSpace=wrap;html=1;" vertex="1" parent="lZB2s9_LXxr9yZhgt-A8-17">
          <mxGeometry y="66" width="160" height="26" as="geometry" />
        </mxCell>
        <mxCell id="lZB2s9_LXxr9yZhgt-A8-20" value="+ возраст: Integer" style="text;strokeColor=none;fillColor=none;align=left;verticalAlign=top;spacingLeft=4;spacingRight=4;overflow=hidden;rotatable=0;points=[[0,0.5],[1,0.5]];portConstraint=eastwest;whiteSpace=wrap;html=1;" vertex="1" parent="lZB2s9_LXxr9yZhgt-A8-17">
          <mxGeometry y="92" width="160" height="26" as="geometry" />
        </mxCell>
        <mxCell id="lZB2s9_LXxr9yZhgt-A8-21" value="+ пол: String" style="text;strokeColor=none;fillColor=none;align=left;verticalAlign=top;spacingLeft=4;spacingRight=4;overflow=hidden;rotatable=0;points=[[0,0.5],[1,0.5]];portConstraint=eastwest;whiteSpace=wrap;html=1;" vertex="1" parent="lZB2s9_LXxr9yZhgt-A8-17">
          <mxGeometry y="118" width="160" height="26" as="geometry" />
        </mxCell>
        <mxCell id="lZB2s9_LXxr9yZhgt-A8-23" value="&amp;lt;&amp;lt;Entity&amp;gt;&amp;gt;&lt;br&gt;Повар" style="swimlane;fontStyle=1;align=center;verticalAlign=top;childLayout=stackLayout;horizontal=1;startSize=40;horizontalStack=0;resizeParent=1;resizeParentMax=0;resizeLast=0;collapsible=1;marginBottom=0;whiteSpace=wrap;html=1;" vertex="1" parent="1">
          <mxGeometry x="1938" y="-891" width="160" height="170" as="geometry" />
        </mxCell>
        <mxCell id="lZB2s9_LXxr9yZhgt-A8-24" value="+ ФИО: String" style="text;strokeColor=none;fillColor=none;align=left;verticalAlign=top;spacingLeft=4;spacingRight=4;overflow=hidden;rotatable=0;points=[[0,0.5],[1,0.5]];portConstraint=eastwest;whiteSpace=wrap;html=1;" vertex="1" parent="lZB2s9_LXxr9yZhgt-A8-23">
          <mxGeometry y="40" width="160" height="26" as="geometry" />
        </mxCell>
        <mxCell id="lZB2s9_LXxr9yZhgt-A8-25" value="+ телефон: String" style="text;strokeColor=none;fillColor=none;align=left;verticalAlign=top;spacingLeft=4;spacingRight=4;overflow=hidden;rotatable=0;points=[[0,0.5],[1,0.5]];portConstraint=eastwest;whiteSpace=wrap;html=1;" vertex="1" parent="lZB2s9_LXxr9yZhgt-A8-23">
          <mxGeometry y="66" width="160" height="26" as="geometry" />
        </mxCell>
        <mxCell id="lZB2s9_LXxr9yZhgt-A8-26" value="+ возраст: Integer" style="text;strokeColor=none;fillColor=none;align=left;verticalAlign=top;spacingLeft=4;spacingRight=4;overflow=hidden;rotatable=0;points=[[0,0.5],[1,0.5]];portConstraint=eastwest;whiteSpace=wrap;html=1;" vertex="1" parent="lZB2s9_LXxr9yZhgt-A8-23">
          <mxGeometry y="92" width="160" height="26" as="geometry" />
        </mxCell>
        <mxCell id="lZB2s9_LXxr9yZhgt-A8-27" value="+ пол: String" style="text;strokeColor=none;fillColor=none;align=left;verticalAlign=top;spacingLeft=4;spacingRight=4;overflow=hidden;rotatable=0;points=[[0,0.5],[1,0.5]];portConstraint=eastwest;whiteSpace=wrap;html=1;" vertex="1" parent="lZB2s9_LXxr9yZhgt-A8-23">
          <mxGeometry y="118" width="160" height="26" as="geometry" />
        </mxCell>
        <mxCell id="lZB2s9_LXxr9yZhgt-A8-28" value="+ Блюда: Блюдо[...]" style="text;strokeColor=none;fillColor=none;align=left;verticalAlign=top;spacingLeft=4;spacingRight=4;overflow=hidden;rotatable=0;points=[[0,0.5],[1,0.5]];portConstraint=eastwest;whiteSpace=wrap;html=1;" vertex="1" parent="lZB2s9_LXxr9yZhgt-A8-23">
          <mxGeometry y="144" width="160" height="26" as="geometry" />
        </mxCell>
        <mxCell id="lZB2s9_LXxr9yZhgt-A8-59" value="&lt;div&gt;&amp;lt;&amp;lt;Boundary&amp;gt;&amp;gt;&lt;br&gt;&lt;/div&gt;Сервис клиентов" style="swimlane;fontStyle=1;align=center;verticalAlign=top;childLayout=stackLayout;horizontal=1;startSize=45;horizontalStack=0;resizeParent=1;resizeParentMax=0;resizeLast=0;collapsible=1;marginBottom=0;whiteSpace=wrap;html=1;" vertex="1" parent="1">
          <mxGeometry x="1170" y="-595.75" width="320" height="190" as="geometry" />
        </mxCell>
        <mxCell id="lZB2s9_LXxr9yZhgt-A8-60" value="- клиенты: Клиент[...]" style="text;strokeColor=none;fillColor=none;align=left;verticalAlign=top;spacingLeft=4;spacingRight=4;overflow=hidden;rotatable=0;points=[[0,0.5],[1,0.5]];portConstraint=eastwest;whiteSpace=wrap;html=1;" vertex="1" parent="lZB2s9_LXxr9yZhgt-A8-59">
          <mxGeometry y="45" width="320" height="26" as="geometry" />
        </mxCell>
        <mxCell id="lZB2s9_LXxr9yZhgt-A8-61" value="" style="line;strokeWidth=1;fillColor=none;align=left;verticalAlign=middle;spacingTop=-1;spacingLeft=3;spacingRight=3;rotatable=0;labelPosition=right;points=[];portConstraint=eastwest;strokeColor=inherit;" vertex="1" parent="lZB2s9_LXxr9yZhgt-A8-59">
          <mxGeometry y="71" width="320" height="8" as="geometry" />
        </mxCell>
        <mxCell id="lZB2s9_LXxr9yZhgt-A8-62" value="+ получить клиента(id клиента: Integer): Клиент" style="text;strokeColor=none;fillColor=none;align=left;verticalAlign=top;spacingLeft=4;spacingRight=4;overflow=hidden;rotatable=0;points=[[0,0.5],[1,0.5]];portConstraint=eastwest;whiteSpace=wrap;html=1;" vertex="1" parent="lZB2s9_LXxr9yZhgt-A8-59">
          <mxGeometry y="79" width="320" height="31" as="geometry" />
        </mxCell>
        <mxCell id="lZB2s9_LXxr9yZhgt-A8-63" value="+ получить заказы (id клиента: Integer&lt;span style=&quot;background-color: initial;&quot;&gt;): Заказ[...]&lt;/span&gt;&lt;div&gt;&lt;span style=&quot;background-color: initial;&quot;&gt;&lt;br&gt;&lt;/span&gt;&lt;/div&gt;&lt;div&gt;+ оформить заказ (блюда: Блюдо[...]): Заказ&lt;/div&gt;&lt;div&gt;&lt;br&gt;&lt;/div&gt;" style="text;strokeColor=none;fillColor=none;align=left;verticalAlign=top;spacingLeft=4;spacingRight=4;overflow=hidden;rotatable=0;points=[[0,0.5],[1,0.5]];portConstraint=eastwest;whiteSpace=wrap;html=1;" vertex="1" parent="lZB2s9_LXxr9yZhgt-A8-59">
          <mxGeometry y="110" width="320" height="80" as="geometry" />
        </mxCell>
        <mxCell id="lZB2s9_LXxr9yZhgt-A8-64" value="" style="endArrow=classic;endSize=12;dashed=1;html=1;rounded=0;endFill=1;entryX=0.475;entryY=1.002;entryDx=0;entryDy=0;entryPerimeter=0;exitX=0.5;exitY=0;exitDx=0;exitDy=0;" edge="1" parent="1" source="lZB2s9_LXxr9yZhgt-A8-59" target="lZB2s9_LXxr9yZhgt-A8-12">
          <mxGeometry width="160" relative="1" as="geometry">
            <mxPoint x="1312" y="-615.75" as="sourcePoint" />
            <mxPoint x="1312" y="-675.75" as="targetPoint" />
            <mxPoint as="offset" />
          </mxGeometry>
        </mxCell>
        <mxCell id="lZB2s9_LXxr9yZhgt-A8-65" value="Use" style="edgeLabel;html=1;align=center;verticalAlign=middle;resizable=0;points=[];rotation=0;" vertex="1" connectable="0" parent="lZB2s9_LXxr9yZhgt-A8-64">
          <mxGeometry x="-0.1537" y="2" relative="1" as="geometry">
            <mxPoint x="21" y="-11" as="offset" />
          </mxGeometry>
        </mxCell>
        <mxCell id="lZB2s9_LXxr9yZhgt-A8-66" value="0..*" style="text;html=1;align=center;verticalAlign=middle;resizable=0;points=[];autosize=1;strokeColor=none;fillColor=none;" vertex="1" parent="1">
          <mxGeometry x="1320.0048065185547" y="-686.252790222168" width="40" height="30" as="geometry" />
        </mxCell>
        <mxCell id="lZB2s9_LXxr9yZhgt-A8-67" value="1" style="text;html=1;align=center;verticalAlign=middle;resizable=0;points=[];autosize=1;strokeColor=none;fillColor=none;" vertex="1" parent="1">
          <mxGeometry x="1340.0048065185547" y="-625.752790222168" width="30" height="30" as="geometry" />
        </mxCell>
        <mxCell id="lZB2s9_LXxr9yZhgt-A8-68" value="&lt;div&gt;&amp;lt;&amp;lt;Boundary&amp;gt;&amp;gt;&lt;br&gt;&lt;/div&gt;Сервис заказов" style="swimlane;fontStyle=1;align=center;verticalAlign=top;childLayout=stackLayout;horizontal=1;startSize=45;horizontalStack=0;resizeParent=1;resizeParentMax=0;resizeLast=0;collapsible=1;marginBottom=0;whiteSpace=wrap;html=1;" vertex="1" parent="1">
          <mxGeometry x="650" y="-580" width="320" height="190" as="geometry" />
        </mxCell>
        <mxCell id="lZB2s9_LXxr9yZhgt-A8-69" value="- заказы: Заказ[...]" style="text;strokeColor=none;fillColor=none;align=left;verticalAlign=top;spacingLeft=4;spacingRight=4;overflow=hidden;rotatable=0;points=[[0,0.5],[1,0.5]];portConstraint=eastwest;whiteSpace=wrap;html=1;" vertex="1" parent="lZB2s9_LXxr9yZhgt-A8-68">
          <mxGeometry y="45" width="320" height="26" as="geometry" />
        </mxCell>
        <mxCell id="lZB2s9_LXxr9yZhgt-A8-70" value="" style="line;strokeWidth=1;fillColor=none;align=left;verticalAlign=middle;spacingTop=-1;spacingLeft=3;spacingRight=3;rotatable=0;labelPosition=right;points=[];portConstraint=eastwest;strokeColor=inherit;" vertex="1" parent="lZB2s9_LXxr9yZhgt-A8-68">
          <mxGeometry y="71" width="320" height="8" as="geometry" />
        </mxCell>
        <mxCell id="lZB2s9_LXxr9yZhgt-A8-71" value="+ получить клиента(id клиента: Integer): Клиент" style="text;strokeColor=none;fillColor=none;align=left;verticalAlign=top;spacingLeft=4;spacingRight=4;overflow=hidden;rotatable=0;points=[[0,0.5],[1,0.5]];portConstraint=eastwest;whiteSpace=wrap;html=1;" vertex="1" parent="lZB2s9_LXxr9yZhgt-A8-68">
          <mxGeometry y="79" width="320" height="31" as="geometry" />
        </mxCell>
        <mxCell id="lZB2s9_LXxr9yZhgt-A8-72" value="+ получить заказанные блюда (id клиента: Integer&lt;span style=&quot;background-color: initial;&quot;&gt;): Блюдо[...]&lt;/span&gt;&lt;div&gt;&lt;span style=&quot;background-color: initial;&quot;&gt;&lt;br&gt;&lt;/span&gt;&lt;/div&gt;&lt;div&gt;+ добавить блюда(блюда: Блюдо[...]): Блюдо[...]&lt;/div&gt;&lt;div&gt;&lt;br&gt;&lt;/div&gt;" style="text;strokeColor=none;fillColor=none;align=left;verticalAlign=top;spacingLeft=4;spacingRight=4;overflow=hidden;rotatable=0;points=[[0,0.5],[1,0.5]];portConstraint=eastwest;whiteSpace=wrap;html=1;" vertex="1" parent="lZB2s9_LXxr9yZhgt-A8-68">
          <mxGeometry y="110" width="320" height="80" as="geometry" />
        </mxCell>
        <mxCell id="lZB2s9_LXxr9yZhgt-A8-73" value="0..*" style="text;html=1;align=center;verticalAlign=middle;resizable=0;points=[];autosize=1;strokeColor=none;fillColor=none;" vertex="1" parent="1">
          <mxGeometry x="730.0048065185547" y="-694.002790222168" width="40" height="30" as="geometry" />
        </mxCell>
        <mxCell id="lZB2s9_LXxr9yZhgt-A8-74" value="" style="endArrow=classic;endSize=12;dashed=1;html=1;rounded=0;endFill=1;entryX=0.456;entryY=1.093;entryDx=0;entryDy=0;entryPerimeter=0;exitX=0.5;exitY=0;exitDx=0;exitDy=0;" edge="1" parent="1" source="lZB2s9_LXxr9yZhgt-A8-68" target="ynVwD2x9rQIdQhet0h1p-31">
          <mxGeometry width="160" relative="1" as="geometry">
            <mxPoint x="790" y="-600.5" as="sourcePoint" />
            <mxPoint x="770" y="-690.5" as="targetPoint" />
            <mxPoint as="offset" />
          </mxGeometry>
        </mxCell>
        <mxCell id="lZB2s9_LXxr9yZhgt-A8-75" value="Use" style="edgeLabel;html=1;align=center;verticalAlign=middle;resizable=0;points=[];rotation=0;" vertex="1" connectable="0" parent="lZB2s9_LXxr9yZhgt-A8-74">
          <mxGeometry x="-0.1537" y="2" relative="1" as="geometry">
            <mxPoint x="-42" y="-8" as="offset" />
          </mxGeometry>
        </mxCell>
        <mxCell id="lZB2s9_LXxr9yZhgt-A8-76" value="1" style="text;html=1;align=center;verticalAlign=middle;resizable=0;points=[];autosize=1;strokeColor=none;fillColor=none;" vertex="1" parent="1">
          <mxGeometry x="750.0048065185547" y="-617.002790222168" width="30" height="30" as="geometry" />
        </mxCell>
        <mxCell id="lZB2s9_LXxr9yZhgt-A8-77" value="" style="endArrow=classic;endSize=12;dashed=1;html=1;rounded=0;endFill=1;entryX=0.483;entryY=1.017;entryDx=0;entryDy=0;entryPerimeter=0;exitX=0.5;exitY=0;exitDx=0;exitDy=0;" edge="1" parent="1" source="lZB2s9_LXxr9yZhgt-A8-68" target="lZB2s9_LXxr9yZhgt-A8-16">
          <mxGeometry width="160" relative="1" as="geometry">
            <mxPoint x="920" y="-600" as="sourcePoint" />
            <mxPoint x="840" y="-697" as="targetPoint" />
            <mxPoint as="offset" />
          </mxGeometry>
        </mxCell>
        <mxCell id="lZB2s9_LXxr9yZhgt-A8-78" value="Use" style="edgeLabel;html=1;align=center;verticalAlign=middle;resizable=0;points=[];rotation=0;" vertex="1" connectable="0" parent="lZB2s9_LXxr9yZhgt-A8-77">
          <mxGeometry x="-0.1537" y="2" relative="1" as="geometry">
            <mxPoint x="52" y="-6" as="offset" />
          </mxGeometry>
        </mxCell>
        <mxCell id="lZB2s9_LXxr9yZhgt-A8-79" value="0..*" style="text;html=1;align=center;verticalAlign=middle;resizable=0;points=[];autosize=1;strokeColor=none;fillColor=none;" vertex="1" parent="1">
          <mxGeometry x="990.0048065185547" y="-694.002790222168" width="40" height="30" as="geometry" />
        </mxCell>
        <mxCell id="lZB2s9_LXxr9yZhgt-A8-80" value="1" style="text;html=1;align=center;verticalAlign=middle;resizable=0;points=[];autosize=1;strokeColor=none;fillColor=none;" vertex="1" parent="1">
          <mxGeometry x="860.0048065185547" y="-617.002790222168" width="30" height="30" as="geometry" />
        </mxCell>
        <mxCell id="lZB2s9_LXxr9yZhgt-A8-82" value="&lt;div&gt;&amp;lt;&amp;lt;Boundary&amp;gt;&amp;gt;&lt;br&gt;&lt;/div&gt;Сервис администраторов" style="swimlane;fontStyle=1;align=center;verticalAlign=top;childLayout=stackLayout;horizontal=1;startSize=45;horizontalStack=0;resizeParent=1;resizeParentMax=0;resizeLast=0;collapsible=1;marginBottom=0;whiteSpace=wrap;html=1;" vertex="1" parent="1">
          <mxGeometry x="1538.62" y="-592.75" width="320" height="250" as="geometry" />
        </mxCell>
        <mxCell id="lZB2s9_LXxr9yZhgt-A8-83" value="- администраторы: Администратор[...]" style="text;strokeColor=none;fillColor=none;align=left;verticalAlign=top;spacingLeft=4;spacingRight=4;overflow=hidden;rotatable=0;points=[[0,0.5],[1,0.5]];portConstraint=eastwest;whiteSpace=wrap;html=1;" vertex="1" parent="lZB2s9_LXxr9yZhgt-A8-82">
          <mxGeometry y="45" width="320" height="26" as="geometry" />
        </mxCell>
        <mxCell id="lZB2s9_LXxr9yZhgt-A8-84" value="" style="line;strokeWidth=1;fillColor=none;align=left;verticalAlign=middle;spacingTop=-1;spacingLeft=3;spacingRight=3;rotatable=0;labelPosition=right;points=[];portConstraint=eastwest;strokeColor=inherit;" vertex="1" parent="lZB2s9_LXxr9yZhgt-A8-82">
          <mxGeometry y="71" width="320" height="8" as="geometry" />
        </mxCell>
        <mxCell id="lZB2s9_LXxr9yZhgt-A8-85" value="+ получить администратора(id администратора: Integer): Администратор" style="text;strokeColor=none;fillColor=none;align=left;verticalAlign=top;spacingLeft=4;spacingRight=4;overflow=hidden;rotatable=0;points=[[0,0.5],[1,0.5]];portConstraint=eastwest;whiteSpace=wrap;html=1;" vertex="1" parent="lZB2s9_LXxr9yZhgt-A8-82">
          <mxGeometry y="79" width="320" height="51" as="geometry" />
        </mxCell>
        <mxCell id="lZB2s9_LXxr9yZhgt-A8-86" value="+ получить клиентов (&lt;span style=&quot;background-color: initial;&quot;&gt;): Клиент[...]&lt;/span&gt;&lt;div&gt;&lt;span style=&quot;background-color: initial;&quot;&gt;&lt;br&gt;&lt;/span&gt;&lt;/div&gt;&lt;div&gt;+ получить заказы (): Заказ[...]&lt;/div&gt;&lt;div&gt;&lt;br&gt;&lt;/div&gt;&lt;div&gt;+ добавить клиента (id клиента: Integer): Клиент&lt;/div&gt;&lt;div&gt;&lt;br&gt;&lt;/div&gt;" style="text;strokeColor=none;fillColor=none;align=left;verticalAlign=top;spacingLeft=4;spacingRight=4;overflow=hidden;rotatable=0;points=[[0,0.5],[1,0.5]];portConstraint=eastwest;whiteSpace=wrap;html=1;" vertex="1" parent="lZB2s9_LXxr9yZhgt-A8-82">
          <mxGeometry y="130" width="320" height="90" as="geometry" />
        </mxCell>
        <mxCell id="lZB2s9_LXxr9yZhgt-A8-87" value="+ удалить клиента (id клиента: Integer): Клиент" style="text;strokeColor=none;fillColor=none;align=left;verticalAlign=top;spacingLeft=4;spacingRight=4;overflow=hidden;rotatable=0;points=[[0,0.5],[1,0.5]];portConstraint=eastwest;whiteSpace=wrap;html=1;" vertex="1" parent="lZB2s9_LXxr9yZhgt-A8-82">
          <mxGeometry y="220" width="320" height="30" as="geometry" />
        </mxCell>
        <mxCell id="lZB2s9_LXxr9yZhgt-A8-89" value="" style="endArrow=classic;endSize=12;dashed=1;html=1;rounded=0;endFill=1;entryX=0.435;entryY=0.991;entryDx=0;entryDy=0;entryPerimeter=0;exitX=0.5;exitY=0;exitDx=0;exitDy=0;" edge="1" parent="1" source="lZB2s9_LXxr9yZhgt-A8-82" target="lZB2s9_LXxr9yZhgt-A8-21">
          <mxGeometry width="160" relative="1" as="geometry">
            <mxPoint x="1679.37" y="-600.75" as="sourcePoint" />
            <mxPoint x="1659.37" y="-690.75" as="targetPoint" />
            <mxPoint as="offset" />
          </mxGeometry>
        </mxCell>
        <mxCell id="lZB2s9_LXxr9yZhgt-A8-90" value="Use" style="edgeLabel;html=1;align=center;verticalAlign=middle;resizable=0;points=[];rotation=0;" vertex="1" connectable="0" parent="lZB2s9_LXxr9yZhgt-A8-89">
          <mxGeometry x="-0.1537" y="2" relative="1" as="geometry">
            <mxPoint x="21" y="-11" as="offset" />
          </mxGeometry>
        </mxCell>
        <mxCell id="lZB2s9_LXxr9yZhgt-A8-91" value="0..*" style="text;html=1;align=center;verticalAlign=middle;resizable=0;points=[];autosize=1;strokeColor=none;fillColor=none;" vertex="1" parent="1">
          <mxGeometry x="1693.8748065185546" y="-697.752790222168" width="40" height="30" as="geometry" />
        </mxCell>
        <mxCell id="lZB2s9_LXxr9yZhgt-A8-92" value="1" style="text;html=1;align=center;verticalAlign=middle;resizable=0;points=[];autosize=1;strokeColor=none;fillColor=none;" vertex="1" parent="1">
          <mxGeometry x="1703.8748065185546" y="-622.752790222168" width="30" height="30" as="geometry" />
        </mxCell>
        <mxCell id="lZB2s9_LXxr9yZhgt-A8-93" value="&lt;div&gt;&amp;lt;&amp;lt;Boundary&amp;gt;&amp;gt;&lt;br&gt;&lt;/div&gt;Сервис поваров" style="swimlane;fontStyle=1;align=center;verticalAlign=top;childLayout=stackLayout;horizontal=1;startSize=45;horizontalStack=0;resizeParent=1;resizeParentMax=0;resizeLast=0;collapsible=1;marginBottom=0;whiteSpace=wrap;html=1;" vertex="1" parent="1">
          <mxGeometry x="1890" y="-607" width="320" height="140" as="geometry" />
        </mxCell>
        <mxCell id="lZB2s9_LXxr9yZhgt-A8-94" value="- повары: Повар[...]" style="text;strokeColor=none;fillColor=none;align=left;verticalAlign=top;spacingLeft=4;spacingRight=4;overflow=hidden;rotatable=0;points=[[0,0.5],[1,0.5]];portConstraint=eastwest;whiteSpace=wrap;html=1;" vertex="1" parent="lZB2s9_LXxr9yZhgt-A8-93">
          <mxGeometry y="45" width="320" height="26" as="geometry" />
        </mxCell>
        <mxCell id="lZB2s9_LXxr9yZhgt-A8-95" value="" style="line;strokeWidth=1;fillColor=none;align=left;verticalAlign=middle;spacingTop=-1;spacingLeft=3;spacingRight=3;rotatable=0;labelPosition=right;points=[];portConstraint=eastwest;strokeColor=inherit;" vertex="1" parent="lZB2s9_LXxr9yZhgt-A8-93">
          <mxGeometry y="71" width="320" height="8" as="geometry" />
        </mxCell>
        <mxCell id="lZB2s9_LXxr9yZhgt-A8-96" value="+ получить блюда(id блюда: Integer): Блюдо" style="text;strokeColor=none;fillColor=none;align=left;verticalAlign=top;spacingLeft=4;spacingRight=4;overflow=hidden;rotatable=0;points=[[0,0.5],[1,0.5]];portConstraint=eastwest;whiteSpace=wrap;html=1;" vertex="1" parent="lZB2s9_LXxr9yZhgt-A8-93">
          <mxGeometry y="79" width="320" height="31" as="geometry" />
        </mxCell>
        <mxCell id="lZB2s9_LXxr9yZhgt-A8-97" value="+ приготовить блюдо (id блюда: Integer&lt;span style=&quot;background-color: initial;&quot;&gt;): Блюдо&lt;/span&gt;&lt;div&gt;&lt;br&gt;&lt;/div&gt;&lt;div&gt;&lt;br&gt;&lt;/div&gt;" style="text;strokeColor=none;fillColor=none;align=left;verticalAlign=top;spacingLeft=4;spacingRight=4;overflow=hidden;rotatable=0;points=[[0,0.5],[1,0.5]];portConstraint=eastwest;whiteSpace=wrap;html=1;" vertex="1" parent="lZB2s9_LXxr9yZhgt-A8-93">
          <mxGeometry y="110" width="320" height="30" as="geometry" />
        </mxCell>
        <mxCell id="lZB2s9_LXxr9yZhgt-A8-98" value="" style="endArrow=classic;endSize=12;dashed=1;html=1;rounded=0;endFill=1;exitX=0.469;exitY=-0.011;exitDx=0;exitDy=0;exitPerimeter=0;entryX=0.516;entryY=1.063;entryDx=0;entryDy=0;entryPerimeter=0;" edge="1" parent="1" source="lZB2s9_LXxr9yZhgt-A8-93" target="lZB2s9_LXxr9yZhgt-A8-28">
          <mxGeometry width="160" relative="1" as="geometry">
            <mxPoint x="2050" y="-627" as="sourcePoint" />
            <mxPoint x="2070" y="-697" as="targetPoint" />
            <mxPoint as="offset" />
          </mxGeometry>
        </mxCell>
        <mxCell id="lZB2s9_LXxr9yZhgt-A8-99" value="Use" style="edgeLabel;html=1;align=center;verticalAlign=middle;resizable=0;points=[];rotation=0;" vertex="1" connectable="0" parent="lZB2s9_LXxr9yZhgt-A8-98">
          <mxGeometry x="-0.1537" y="2" relative="1" as="geometry">
            <mxPoint x="21" y="-11" as="offset" />
          </mxGeometry>
        </mxCell>
        <mxCell id="lZB2s9_LXxr9yZhgt-A8-100" value="0..*" style="text;html=1;align=center;verticalAlign=middle;resizable=0;points=[];autosize=1;strokeColor=none;fillColor=none;" vertex="1" parent="1">
          <mxGeometry x="2030.0048065185547" y="-717.502790222168" width="40" height="30" as="geometry" />
        </mxCell>
        <mxCell id="lZB2s9_LXxr9yZhgt-A8-101" value="1" style="text;html=1;align=center;verticalAlign=middle;resizable=0;points=[];autosize=1;strokeColor=none;fillColor=none;" vertex="1" parent="1">
          <mxGeometry x="2050.0048065185547" y="-637.002790222168" width="30" height="30" as="geometry" />
        </mxCell>
        <mxCell id="lZB2s9_LXxr9yZhgt-A8-102" value="&lt;div&gt;&amp;lt;&amp;lt;Controller&amp;gt;&amp;gt;&lt;br&gt;&lt;/div&gt;Контроллер клиентов" style="swimlane;fontStyle=1;align=center;verticalAlign=top;childLayout=stackLayout;horizontal=1;startSize=45;horizontalStack=0;resizeParent=1;resizeParentMax=0;resizeLast=0;collapsible=1;marginBottom=0;whiteSpace=wrap;html=1;" vertex="1" parent="1">
          <mxGeometry x="1170.0048065185547" y="-340.00279022216796" width="320" height="112" as="geometry" />
        </mxCell>
        <mxCell id="lZB2s9_LXxr9yZhgt-A8-103" value="" style="line;strokeWidth=1;fillColor=none;align=left;verticalAlign=middle;spacingTop=-1;spacingLeft=3;spacingRight=3;rotatable=0;labelPosition=right;points=[];portConstraint=eastwest;strokeColor=inherit;" vertex="1" parent="lZB2s9_LXxr9yZhgt-A8-102">
          <mxGeometry y="45" width="320" height="8" as="geometry" />
        </mxCell>
        <mxCell id="lZB2s9_LXxr9yZhgt-A8-104" value="+ получить клинетов(): Клинет[...]" style="text;strokeColor=none;fillColor=none;align=left;verticalAlign=top;spacingLeft=4;spacingRight=4;overflow=hidden;rotatable=0;points=[[0,0.5],[1,0.5]];portConstraint=eastwest;whiteSpace=wrap;html=1;" vertex="1" parent="lZB2s9_LXxr9yZhgt-A8-102">
          <mxGeometry y="53" width="320" height="26" as="geometry" />
        </mxCell>
        <mxCell id="lZB2s9_LXxr9yZhgt-A8-105" value="+ Оформить заказ(заказ: Заказ): Заказ[...]" style="text;strokeColor=none;fillColor=none;align=left;verticalAlign=top;spacingLeft=4;spacingRight=4;overflow=hidden;rotatable=0;points=[[0,0.5],[1,0.5]];portConstraint=eastwest;whiteSpace=wrap;html=1;" vertex="1" parent="lZB2s9_LXxr9yZhgt-A8-102">
          <mxGeometry y="79" width="320" height="33" as="geometry" />
        </mxCell>
        <mxCell id="lZB2s9_LXxr9yZhgt-A8-109" value="" style="endArrow=classic;endSize=12;dashed=1;html=1;rounded=0;endFill=1;entryX=0;entryY=0.049;entryDx=0;entryDy=0;entryPerimeter=0;exitX=1.014;exitY=-0.115;exitDx=0;exitDy=0;exitPerimeter=0;" edge="1" parent="1" source="ynVwD2x9rQIdQhet0h1p-30" target="lZB2s9_LXxr9yZhgt-A8-15">
          <mxGeometry width="160" relative="1" as="geometry">
            <mxPoint x="927" y="-780" as="sourcePoint" />
            <mxPoint x="890" y="-900" as="targetPoint" />
            <mxPoint as="offset" />
          </mxGeometry>
        </mxCell>
        <mxCell id="lZB2s9_LXxr9yZhgt-A8-110" value="Use" style="edgeLabel;html=1;align=center;verticalAlign=middle;resizable=0;points=[];rotation=0;" vertex="1" connectable="0" parent="lZB2s9_LXxr9yZhgt-A8-109">
          <mxGeometry x="-0.1537" y="2" relative="1" as="geometry">
            <mxPoint x="3" y="4" as="offset" />
          </mxGeometry>
        </mxCell>
        <mxCell id="lZB2s9_LXxr9yZhgt-A8-111" value="1" style="text;html=1;align=center;verticalAlign=middle;resizable=0;points=[];autosize=1;strokeColor=none;fillColor=none;" vertex="1" parent="1">
          <mxGeometry x="860.0048065185547" y="-786.252790222168" width="30" height="30" as="geometry" />
        </mxCell>
        <mxCell id="lZB2s9_LXxr9yZhgt-A8-112" value="0..*" style="text;html=1;align=center;verticalAlign=middle;resizable=0;points=[];autosize=1;strokeColor=none;fillColor=none;" vertex="1" parent="1">
          <mxGeometry x="890.0048065185547" y="-786.252790222168" width="40" height="30" as="geometry" />
        </mxCell>
        <mxCell id="lZB2s9_LXxr9yZhgt-A8-113" value="" style="endArrow=classic;endSize=12;dashed=1;html=1;rounded=0;endFill=1;entryX=0.5;entryY=0;entryDx=0;entryDy=0;exitX=0;exitY=0;exitDx=0;exitDy=0;edgeStyle=orthogonalEdgeStyle;" edge="1" parent="1" source="lZB2s9_LXxr9yZhgt-A8-7" target="Xvs3PHVjeso9eTJmXJPS-153">
          <mxGeometry width="160" relative="1" as="geometry">
            <mxPoint x="930" y="-876.25" as="sourcePoint" />
            <mxPoint x="1117" y="-996.25" as="targetPoint" />
            <mxPoint as="offset" />
          </mxGeometry>
        </mxCell>
        <mxCell id="lZB2s9_LXxr9yZhgt-A8-114" value="Use" style="edgeLabel;html=1;align=center;verticalAlign=middle;resizable=0;points=[];rotation=0;" vertex="1" connectable="0" parent="lZB2s9_LXxr9yZhgt-A8-113">
          <mxGeometry x="-0.1537" y="2" relative="1" as="geometry">
            <mxPoint x="-44" y="-6" as="offset" />
          </mxGeometry>
        </mxCell>
        <mxCell id="lZB2s9_LXxr9yZhgt-A8-115" value="1" style="text;html=1;align=center;verticalAlign=middle;resizable=0;points=[];autosize=1;strokeColor=none;fillColor=none;" vertex="1" parent="1">
          <mxGeometry x="1194.0048065185547" y="-900.002790222168" width="30" height="30" as="geometry" />
        </mxCell>
        <mxCell id="lZB2s9_LXxr9yZhgt-A8-116" value="0..*" style="text;html=1;align=center;verticalAlign=middle;resizable=0;points=[];autosize=1;strokeColor=none;fillColor=none;" vertex="1" parent="1">
          <mxGeometry x="787.0048065185547" y="-900.002790222168" width="40" height="30" as="geometry" />
        </mxCell>
        <mxCell id="lZB2s9_LXxr9yZhgt-A8-118" value="" style="endArrow=classic;endSize=12;dashed=1;html=1;rounded=0;endFill=1;entryX=0.463;entryY=1.057;entryDx=0;entryDy=0;entryPerimeter=0;exitX=0.466;exitY=0.002;exitDx=0;exitDy=0;exitPerimeter=0;" edge="1" parent="1" source="lZB2s9_LXxr9yZhgt-A8-102" target="lZB2s9_LXxr9yZhgt-A8-63">
          <mxGeometry width="160" relative="1" as="geometry">
            <mxPoint x="1310" y="-340" as="sourcePoint" />
            <mxPoint x="1290" y="-430" as="targetPoint" />
            <mxPoint as="offset" />
          </mxGeometry>
        </mxCell>
        <mxCell id="lZB2s9_LXxr9yZhgt-A8-119" value="Use" style="edgeLabel;html=1;align=center;verticalAlign=middle;resizable=0;points=[];rotation=0;" vertex="1" connectable="0" parent="lZB2s9_LXxr9yZhgt-A8-118">
          <mxGeometry x="-0.1537" y="2" relative="1" as="geometry">
            <mxPoint x="3" y="6" as="offset" />
          </mxGeometry>
        </mxCell>
        <mxCell id="lZB2s9_LXxr9yZhgt-A8-120" value="1" style="text;html=1;align=center;verticalAlign=middle;resizable=0;points=[];autosize=1;strokeColor=none;fillColor=none;" vertex="1" parent="1">
          <mxGeometry x="1330.0048065185547" y="-370.00279022216796" width="30" height="30" as="geometry" />
        </mxCell>
        <mxCell id="lZB2s9_LXxr9yZhgt-A8-121" value="1" style="text;html=1;align=center;verticalAlign=middle;resizable=0;points=[];autosize=1;strokeColor=none;fillColor=none;" vertex="1" parent="1">
          <mxGeometry x="1325.0048065185547" y="-400.00279022216796" width="30" height="30" as="geometry" />
        </mxCell>
        <mxCell id="lZB2s9_LXxr9yZhgt-A8-122" value="&lt;div&gt;&amp;lt;&amp;lt;Controller&amp;gt;&amp;gt;&lt;br&gt;&lt;/div&gt;Контроллер заказов" style="swimlane;fontStyle=1;align=center;verticalAlign=top;childLayout=stackLayout;horizontal=1;startSize=45;horizontalStack=0;resizeParent=1;resizeParentMax=0;resizeLast=0;collapsible=1;marginBottom=0;whiteSpace=wrap;html=1;" vertex="1" parent="1">
          <mxGeometry x="660.0048065185547" y="-310.00279022216796" width="320" height="79" as="geometry" />
        </mxCell>
        <mxCell id="lZB2s9_LXxr9yZhgt-A8-123" value="" style="line;strokeWidth=1;fillColor=none;align=left;verticalAlign=middle;spacingTop=-1;spacingLeft=3;spacingRight=3;rotatable=0;labelPosition=right;points=[];portConstraint=eastwest;strokeColor=inherit;" vertex="1" parent="lZB2s9_LXxr9yZhgt-A8-122">
          <mxGeometry y="45" width="320" height="8" as="geometry" />
        </mxCell>
        <mxCell id="lZB2s9_LXxr9yZhgt-A8-124" value="+ получить заказы(): Заказ[...]" style="text;strokeColor=none;fillColor=none;align=left;verticalAlign=top;spacingLeft=4;spacingRight=4;overflow=hidden;rotatable=0;points=[[0,0.5],[1,0.5]];portConstraint=eastwest;whiteSpace=wrap;html=1;" vertex="1" parent="lZB2s9_LXxr9yZhgt-A8-122">
          <mxGeometry y="53" width="320" height="26" as="geometry" />
        </mxCell>
        <mxCell id="lZB2s9_LXxr9yZhgt-A8-127" value="" style="endArrow=classic;endSize=12;dashed=1;html=1;rounded=0;endFill=1;exitX=0.5;exitY=0;exitDx=0;exitDy=0;entryX=0.495;entryY=1.025;entryDx=0;entryDy=0;entryPerimeter=0;" edge="1" parent="1" source="lZB2s9_LXxr9yZhgt-A8-122" target="lZB2s9_LXxr9yZhgt-A8-72">
          <mxGeometry width="160" relative="1" as="geometry">
            <mxPoint x="799.38" y="-324.5" as="sourcePoint" />
            <mxPoint x="810" y="-380" as="targetPoint" />
            <mxPoint as="offset" />
          </mxGeometry>
        </mxCell>
        <mxCell id="lZB2s9_LXxr9yZhgt-A8-128" value="Use" style="edgeLabel;html=1;align=center;verticalAlign=middle;resizable=0;points=[];rotation=0;" vertex="1" connectable="0" parent="lZB2s9_LXxr9yZhgt-A8-127">
          <mxGeometry x="-0.1537" y="2" relative="1" as="geometry">
            <mxPoint x="3" y="6" as="offset" />
          </mxGeometry>
        </mxCell>
        <mxCell id="lZB2s9_LXxr9yZhgt-A8-129" value="1" style="text;html=1;align=center;verticalAlign=middle;resizable=0;points=[];autosize=1;strokeColor=none;fillColor=none;" vertex="1" parent="1">
          <mxGeometry x="827.0048065185547" y="-390.00279022216796" width="30" height="30" as="geometry" />
        </mxCell>
        <mxCell id="lZB2s9_LXxr9yZhgt-A8-130" value="1" style="text;html=1;align=center;verticalAlign=middle;resizable=0;points=[];autosize=1;strokeColor=none;fillColor=none;" vertex="1" parent="1">
          <mxGeometry x="830.0048065185547" y="-342.75279022216796" width="30" height="30" as="geometry" />
        </mxCell>
        <mxCell id="lZB2s9_LXxr9yZhgt-A8-131" value="&lt;div&gt;&amp;lt;&amp;lt;Controller&amp;gt;&amp;gt;&lt;br&gt;&lt;/div&gt;Контроллер администраторов" style="swimlane;fontStyle=1;align=center;verticalAlign=top;childLayout=stackLayout;horizontal=1;startSize=45;horizontalStack=0;resizeParent=1;resizeParentMax=0;resizeLast=0;collapsible=1;marginBottom=0;whiteSpace=wrap;html=1;" vertex="1" parent="1">
          <mxGeometry x="1538.6248065185546" y="-270.00279022216796" width="320" height="178" as="geometry" />
        </mxCell>
        <mxCell id="lZB2s9_LXxr9yZhgt-A8-132" value="" style="line;strokeWidth=1;fillColor=none;align=left;verticalAlign=middle;spacingTop=-1;spacingLeft=3;spacingRight=3;rotatable=0;labelPosition=right;points=[];portConstraint=eastwest;strokeColor=inherit;" vertex="1" parent="lZB2s9_LXxr9yZhgt-A8-131">
          <mxGeometry y="45" width="320" height="8" as="geometry" />
        </mxCell>
        <mxCell id="lZB2s9_LXxr9yZhgt-A8-133" value="+ получить админнистраторов(): Администратор[...]" style="text;strokeColor=none;fillColor=none;align=left;verticalAlign=top;spacingLeft=4;spacingRight=4;overflow=hidden;rotatable=0;points=[[0,0.5],[1,0.5]];portConstraint=eastwest;whiteSpace=wrap;html=1;" vertex="1" parent="lZB2s9_LXxr9yZhgt-A8-131">
          <mxGeometry y="53" width="320" height="26" as="geometry" />
        </mxCell>
        <mxCell id="lZB2s9_LXxr9yZhgt-A8-134" value="+ получить клиентов(): Клиент[...]" style="text;strokeColor=none;fillColor=none;align=left;verticalAlign=top;spacingLeft=4;spacingRight=4;overflow=hidden;rotatable=0;points=[[0,0.5],[1,0.5]];portConstraint=eastwest;whiteSpace=wrap;html=1;" vertex="1" parent="lZB2s9_LXxr9yZhgt-A8-131">
          <mxGeometry y="79" width="320" height="33" as="geometry" />
        </mxCell>
        <mxCell id="lZB2s9_LXxr9yZhgt-A8-140" value="+ получить заказы(): Заказ[...]" style="text;strokeColor=none;fillColor=none;align=left;verticalAlign=top;spacingLeft=4;spacingRight=4;overflow=hidden;rotatable=0;points=[[0,0.5],[1,0.5]];portConstraint=eastwest;whiteSpace=wrap;html=1;" vertex="1" parent="lZB2s9_LXxr9yZhgt-A8-131">
          <mxGeometry y="112" width="320" height="33" as="geometry" />
        </mxCell>
        <mxCell id="lZB2s9_LXxr9yZhgt-A8-141" value="+ добавить клиента(): Клиент" style="text;strokeColor=none;fillColor=none;align=left;verticalAlign=top;spacingLeft=4;spacingRight=4;overflow=hidden;rotatable=0;points=[[0,0.5],[1,0.5]];portConstraint=eastwest;whiteSpace=wrap;html=1;" vertex="1" parent="lZB2s9_LXxr9yZhgt-A8-131">
          <mxGeometry y="145" width="320" height="33" as="geometry" />
        </mxCell>
        <mxCell id="lZB2s9_LXxr9yZhgt-A8-136" value="" style="endArrow=classic;endSize=12;dashed=1;html=1;rounded=0;endFill=1;exitX=0.5;exitY=0;exitDx=0;exitDy=0;entryX=0.485;entryY=1.088;entryDx=0;entryDy=0;entryPerimeter=0;" edge="1" parent="1" source="lZB2s9_LXxr9yZhgt-A8-131" target="lZB2s9_LXxr9yZhgt-A8-87">
          <mxGeometry width="160" relative="1" as="geometry">
            <mxPoint x="1683.73" y="-281.75" as="sourcePoint" />
            <mxPoint x="1699" y="-330" as="targetPoint" />
            <mxPoint as="offset" />
          </mxGeometry>
        </mxCell>
        <mxCell id="lZB2s9_LXxr9yZhgt-A8-137" value="Use" style="edgeLabel;html=1;align=center;verticalAlign=middle;resizable=0;points=[];rotation=0;" vertex="1" connectable="0" parent="lZB2s9_LXxr9yZhgt-A8-136">
          <mxGeometry x="-0.1537" y="2" relative="1" as="geometry">
            <mxPoint x="3" y="6" as="offset" />
          </mxGeometry>
        </mxCell>
        <mxCell id="lZB2s9_LXxr9yZhgt-A8-138" value="1" style="text;html=1;align=center;verticalAlign=middle;resizable=0;points=[];autosize=1;strokeColor=none;fillColor=none;" vertex="1" parent="1">
          <mxGeometry x="1700.0048065185547" y="-340.00279022216796" width="30" height="30" as="geometry" />
        </mxCell>
        <mxCell id="lZB2s9_LXxr9yZhgt-A8-139" value="1" style="text;html=1;align=center;verticalAlign=middle;resizable=0;points=[];autosize=1;strokeColor=none;fillColor=none;" vertex="1" parent="1">
          <mxGeometry x="1709.3748065185546" y="-300.00279022216796" width="30" height="30" as="geometry" />
        </mxCell>
        <mxCell id="lZB2s9_LXxr9yZhgt-A8-148" value="&lt;div&gt;&amp;lt;&amp;lt;Controller&amp;gt;&amp;gt;&lt;br&gt;&lt;/div&gt;Контроллер поваров" style="swimlane;fontStyle=1;align=center;verticalAlign=top;childLayout=stackLayout;horizontal=1;startSize=45;horizontalStack=0;resizeParent=1;resizeParentMax=0;resizeLast=0;collapsible=1;marginBottom=0;whiteSpace=wrap;html=1;" vertex="1" parent="1">
          <mxGeometry x="1915.3748065185546" y="-370.00279022216796" width="320" height="112" as="geometry" />
        </mxCell>
        <mxCell id="lZB2s9_LXxr9yZhgt-A8-149" value="" style="line;strokeWidth=1;fillColor=none;align=left;verticalAlign=middle;spacingTop=-1;spacingLeft=3;spacingRight=3;rotatable=0;labelPosition=right;points=[];portConstraint=eastwest;strokeColor=inherit;" vertex="1" parent="lZB2s9_LXxr9yZhgt-A8-148">
          <mxGeometry y="45" width="320" height="8" as="geometry" />
        </mxCell>
        <mxCell id="lZB2s9_LXxr9yZhgt-A8-150" value="+ получить поваров(): ПОВАР[...]" style="text;strokeColor=none;fillColor=none;align=left;verticalAlign=top;spacingLeft=4;spacingRight=4;overflow=hidden;rotatable=0;points=[[0,0.5],[1,0.5]];portConstraint=eastwest;whiteSpace=wrap;html=1;" vertex="1" parent="lZB2s9_LXxr9yZhgt-A8-148">
          <mxGeometry y="53" width="320" height="26" as="geometry" />
        </mxCell>
        <mxCell id="lZB2s9_LXxr9yZhgt-A8-151" value="+ Приготовить блюдо(блюдо: Блюдо): Блюдо" style="text;strokeColor=none;fillColor=none;align=left;verticalAlign=top;spacingLeft=4;spacingRight=4;overflow=hidden;rotatable=0;points=[[0,0.5],[1,0.5]];portConstraint=eastwest;whiteSpace=wrap;html=1;" vertex="1" parent="lZB2s9_LXxr9yZhgt-A8-148">
          <mxGeometry y="79" width="320" height="33" as="geometry" />
        </mxCell>
        <mxCell id="lZB2s9_LXxr9yZhgt-A8-153" value="" style="endArrow=classic;endSize=12;dashed=1;html=1;rounded=0;endFill=1;entryX=0.508;entryY=1.173;entryDx=0;entryDy=0;entryPerimeter=0;exitX=0.5;exitY=0;exitDx=0;exitDy=0;" edge="1" parent="1" source="lZB2s9_LXxr9yZhgt-A8-148" target="lZB2s9_LXxr9yZhgt-A8-97">
          <mxGeometry width="160" relative="1" as="geometry">
            <mxPoint x="2031" y="-390" as="sourcePoint" />
            <mxPoint x="2030" y="-451" as="targetPoint" />
            <mxPoint as="offset" />
          </mxGeometry>
        </mxCell>
        <mxCell id="lZB2s9_LXxr9yZhgt-A8-154" value="Use" style="edgeLabel;html=1;align=center;verticalAlign=middle;resizable=0;points=[];rotation=0;" vertex="1" connectable="0" parent="lZB2s9_LXxr9yZhgt-A8-153">
          <mxGeometry x="-0.1537" y="2" relative="1" as="geometry">
            <mxPoint x="3" y="6" as="offset" />
          </mxGeometry>
        </mxCell>
        <mxCell id="lZB2s9_LXxr9yZhgt-A8-155" value="1" style="text;html=1;align=center;verticalAlign=middle;resizable=0;points=[];autosize=1;strokeColor=none;fillColor=none;" vertex="1" parent="1">
          <mxGeometry x="2080.0048065185547" y="-467.00279022216796" width="30" height="30" as="geometry" />
        </mxCell>
        <mxCell id="lZB2s9_LXxr9yZhgt-A8-156" value="1" style="text;html=1;align=center;verticalAlign=middle;resizable=0;points=[];autosize=1;strokeColor=none;fillColor=none;" vertex="1" parent="1">
          <mxGeometry x="2094.3748065185546" y="-420.00279022216796" width="30" height="30" as="geometry" />
        </mxCell>
        <mxCell id="lZB2s9_LXxr9yZhgt-A8-157" value="" style="endArrow=classic;endSize=12;dashed=1;html=1;rounded=0;endFill=1;entryX=0.5;entryY=0;entryDx=0;entryDy=0;exitX=0;exitY=0;exitDx=0;exitDy=0;edgeStyle=orthogonalEdgeStyle;" edge="1" parent="1" source="lZB2s9_LXxr9yZhgt-A8-23" target="lZB2s9_LXxr9yZhgt-A8-13">
          <mxGeometry width="160" relative="1" as="geometry">
            <mxPoint x="1925.62" y="-916" as="sourcePoint" />
            <mxPoint x="1471.62" y="-880" as="targetPoint" />
            <mxPoint as="offset" />
          </mxGeometry>
        </mxCell>
        <mxCell id="lZB2s9_LXxr9yZhgt-A8-158" value="Use" style="edgeLabel;html=1;align=center;verticalAlign=middle;resizable=0;points=[];rotation=0;" vertex="1" connectable="0" parent="lZB2s9_LXxr9yZhgt-A8-157">
          <mxGeometry x="-0.1537" y="2" relative="1" as="geometry">
            <mxPoint x="-44" y="-6" as="offset" />
          </mxGeometry>
        </mxCell>
        <mxCell id="lZB2s9_LXxr9yZhgt-A8-159" value="1" style="text;html=1;align=center;verticalAlign=middle;resizable=0;points=[];autosize=1;strokeColor=none;fillColor=none;" vertex="1" parent="1">
          <mxGeometry x="1908.0048065185547" y="-944.752790222168" width="30" height="30" as="geometry" />
        </mxCell>
        <mxCell id="lZB2s9_LXxr9yZhgt-A8-160" value="0..*" style="text;html=1;align=center;verticalAlign=middle;resizable=0;points=[];autosize=1;strokeColor=none;fillColor=none;" vertex="1" parent="1">
          <mxGeometry x="1010.0048065185547" y="-944.752790222168" width="40" height="30" as="geometry" />
        </mxCell>
        <mxCell id="lZB2s9_LXxr9yZhgt-A8-201" style="edgeStyle=orthogonalEdgeStyle;rounded=0;orthogonalLoop=1;jettySize=auto;html=1;entryX=0;entryY=0.5;entryDx=0;entryDy=0;" edge="1" parent="1" source="lZB2s9_LXxr9yZhgt-A8-202" target="lZB2s9_LXxr9yZhgt-A8-204">
          <mxGeometry relative="1" as="geometry" />
        </mxCell>
        <mxCell id="lZB2s9_LXxr9yZhgt-A8-202" value="" style="ellipse;html=1;shape=endState;fillColor=#000000;strokeColor=#ff0000;" vertex="1" parent="1">
          <mxGeometry x="2515" y="140.93" width="30" height="30" as="geometry" />
        </mxCell>
        <mxCell id="lZB2s9_LXxr9yZhgt-A8-203" style="edgeStyle=orthogonalEdgeStyle;rounded=0;orthogonalLoop=1;jettySize=auto;html=1;entryX=0.5;entryY=0;entryDx=0;entryDy=0;" edge="1" parent="1" source="lZB2s9_LXxr9yZhgt-A8-204" target="lZB2s9_LXxr9yZhgt-A8-207">
          <mxGeometry relative="1" as="geometry" />
        </mxCell>
        <mxCell id="lZB2s9_LXxr9yZhgt-A8-204" value="Клиент зовет официанта" style="rounded=1;whiteSpace=wrap;html=1;" vertex="1" parent="1">
          <mxGeometry x="2645" y="140.93" width="130" height="30" as="geometry" />
        </mxCell>
        <mxCell id="lZB2s9_LXxr9yZhgt-A8-205" style="edgeStyle=orthogonalEdgeStyle;rounded=0;orthogonalLoop=1;jettySize=auto;html=1;entryX=0.5;entryY=0;entryDx=0;entryDy=0;exitX=0.462;exitY=1;exitDx=0;exitDy=0;exitPerimeter=0;" edge="1" parent="1" source="lZB2s9_LXxr9yZhgt-A8-235" target="lZB2s9_LXxr9yZhgt-A8-210">
          <mxGeometry relative="1" as="geometry">
            <mxPoint x="2705" y="314.93000000000006" as="sourcePoint" />
          </mxGeometry>
        </mxCell>
        <mxCell id="lZB2s9_LXxr9yZhgt-A8-206" style="edgeStyle=orthogonalEdgeStyle;rounded=0;orthogonalLoop=1;jettySize=auto;html=1;entryX=0.5;entryY=0;entryDx=0;entryDy=0;" edge="1" parent="1" source="lZB2s9_LXxr9yZhgt-A8-207" target="lZB2s9_LXxr9yZhgt-A8-235">
          <mxGeometry relative="1" as="geometry" />
        </mxCell>
        <mxCell id="lZB2s9_LXxr9yZhgt-A8-207" value="Клиент делает заказ блюда" style="rounded=1;whiteSpace=wrap;html=1;" vertex="1" parent="1">
          <mxGeometry x="2645" y="220.93" width="130" height="30" as="geometry" />
        </mxCell>
        <mxCell id="lZB2s9_LXxr9yZhgt-A8-208" style="edgeStyle=orthogonalEdgeStyle;rounded=0;orthogonalLoop=1;jettySize=auto;html=1;entryX=0.5;entryY=0;entryDx=0;entryDy=0;" edge="1" parent="1" source="lZB2s9_LXxr9yZhgt-A8-210" target="lZB2s9_LXxr9yZhgt-A8-212">
          <mxGeometry relative="1" as="geometry" />
        </mxCell>
        <mxCell id="lZB2s9_LXxr9yZhgt-A8-209" style="edgeStyle=orthogonalEdgeStyle;rounded=0;orthogonalLoop=1;jettySize=auto;html=1;exitX=1;exitY=0.5;exitDx=0;exitDy=0;entryX=0.5;entryY=0;entryDx=0;entryDy=0;" edge="1" parent="1" source="lZB2s9_LXxr9yZhgt-A8-210">
          <mxGeometry relative="1" as="geometry">
            <mxPoint x="2855" y="414.93000000000006" as="targetPoint" />
          </mxGeometry>
        </mxCell>
        <mxCell id="lZB2s9_LXxr9yZhgt-A8-210" value="" style="rhombus;whiteSpace=wrap;html=1;" vertex="1" parent="1">
          <mxGeometry x="2672.5" y="344.93000000000006" width="65" height="30" as="geometry" />
        </mxCell>
        <mxCell id="lZB2s9_LXxr9yZhgt-A8-211" style="edgeStyle=orthogonalEdgeStyle;rounded=0;orthogonalLoop=1;jettySize=auto;html=1;entryX=0;entryY=0.5;entryDx=0;entryDy=0;" edge="1" parent="1" source="lZB2s9_LXxr9yZhgt-A8-212" target="lZB2s9_LXxr9yZhgt-A8-224">
          <mxGeometry relative="1" as="geometry" />
        </mxCell>
        <mxCell id="lZB2s9_LXxr9yZhgt-A8-212" value="Сообщить клиенту об отсутствии блюда" style="rounded=1;whiteSpace=wrap;html=1;" vertex="1" parent="1">
          <mxGeometry x="2490" y="414.93000000000006" width="130" height="30" as="geometry" />
        </mxCell>
        <mxCell id="lZB2s9_LXxr9yZhgt-A8-213" value="&lt;span style=&quot;text-align: center;&quot;&gt;Блюдо закончилось&lt;/span&gt;" style="text;whiteSpace=wrap;html=1;" vertex="1" parent="1">
          <mxGeometry x="2560" y="334.93000000000006" width="120" height="40" as="geometry" />
        </mxCell>
        <mxCell id="lZB2s9_LXxr9yZhgt-A8-214" value="&lt;span style=&quot;color: rgb(0, 0, 0); font-family: Helvetica; font-size: 12px; font-style: normal; font-variant-ligatures: normal; font-variant-caps: normal; font-weight: 400; letter-spacing: normal; orphans: 2; text-align: center; text-indent: 0px; text-transform: none; widows: 2; word-spacing: 0px; -webkit-text-stroke-width: 0px; white-space: normal; background-color: rgb(251, 251, 251); text-decoration-thickness: initial; text-decoration-style: initial; text-decoration-color: initial; display: inline !important; float: none;&quot;&gt;Блюдо имеется&lt;/span&gt;" style="text;whiteSpace=wrap;html=1;" vertex="1" parent="1">
          <mxGeometry x="2750" y="334.93000000000006" width="140" height="30" as="geometry" />
        </mxCell>
        <mxCell id="lZB2s9_LXxr9yZhgt-A8-215" style="edgeStyle=orthogonalEdgeStyle;rounded=0;orthogonalLoop=1;jettySize=auto;html=1;curved=0;entryX=0.5;entryY=0;entryDx=0;entryDy=0;" edge="1" parent="1" target="lZB2s9_LXxr9yZhgt-A8-216">
          <mxGeometry relative="1" as="geometry">
            <mxPoint x="2772" y="415.93000000000006" as="sourcePoint" />
            <Array as="points">
              <mxPoint x="2772" y="415.93000000000006" />
            </Array>
          </mxGeometry>
        </mxCell>
        <mxCell id="lZB2s9_LXxr9yZhgt-A8-216" value="передать информацию повару" style="rounded=1;whiteSpace=wrap;html=1;" vertex="1" parent="1">
          <mxGeometry x="2720" y="455.93000000000006" width="103.75" height="50" as="geometry" />
        </mxCell>
        <mxCell id="lZB2s9_LXxr9yZhgt-A8-217" value="Добавить заказ в лист ожидания" style="rounded=1;whiteSpace=wrap;html=1;" vertex="1" parent="1">
          <mxGeometry x="2876" y="455.93000000000006" width="103.75" height="50" as="geometry" />
        </mxCell>
        <mxCell id="lZB2s9_LXxr9yZhgt-A8-218" style="edgeStyle=orthogonalEdgeStyle;rounded=0;orthogonalLoop=1;jettySize=auto;html=1;curved=0;entryX=0.5;entryY=0;entryDx=0;entryDy=0;" edge="1" parent="1">
          <mxGeometry relative="1" as="geometry">
            <mxPoint x="2927.38" y="415.93000000000006" as="sourcePoint" />
            <mxPoint x="2927.38" y="455.93000000000006" as="targetPoint" />
            <Array as="points">
              <mxPoint x="2927.38" y="426.93000000000006" />
              <mxPoint x="2927.38" y="426.93000000000006" />
            </Array>
          </mxGeometry>
        </mxCell>
        <mxCell id="lZB2s9_LXxr9yZhgt-A8-219" value="" style="html=1;points=[[0,0,0,0,5],[0,1,0,0,-5],[1,0,0,0,5],[1,1,0,0,-5]];perimeter=orthogonalPerimeter;outlineConnect=0;targetShapes=umlLifeline;portConstraint=eastwest;newEdgeStyle={&quot;curved&quot;:0,&quot;rounded&quot;:0};gradientColor=none;fillColor=#000000;rotation=90;" vertex="1" parent="1">
          <mxGeometry x="2850.38" y="457.80999999999995" width="10" height="186.25" as="geometry" />
        </mxCell>
        <mxCell id="lZB2s9_LXxr9yZhgt-A8-220" style="edgeStyle=orthogonalEdgeStyle;rounded=0;orthogonalLoop=1;jettySize=auto;html=1;curved=0;entryX=0.5;entryY=0;entryDx=0;entryDy=0;" edge="1" parent="1">
          <mxGeometry relative="1" as="geometry">
            <mxPoint x="2796" y="505.93000000000006" as="sourcePoint" />
            <mxPoint x="2796" y="545.9300000000001" as="targetPoint" />
            <Array as="points">
              <mxPoint x="2796" y="505.93000000000006" />
            </Array>
          </mxGeometry>
        </mxCell>
        <mxCell id="lZB2s9_LXxr9yZhgt-A8-221" style="edgeStyle=orthogonalEdgeStyle;rounded=0;orthogonalLoop=1;jettySize=auto;html=1;curved=0;entryX=0.5;entryY=0;entryDx=0;entryDy=0;" edge="1" parent="1">
          <mxGeometry relative="1" as="geometry">
            <mxPoint x="2916" y="505.93000000000006" as="sourcePoint" />
            <mxPoint x="2916" y="545.9300000000001" as="targetPoint" />
            <Array as="points">
              <mxPoint x="2916" y="516.9300000000001" />
              <mxPoint x="2916" y="516.9300000000001" />
            </Array>
          </mxGeometry>
        </mxCell>
        <mxCell id="lZB2s9_LXxr9yZhgt-A8-222" value="" style="edgeStyle=orthogonalEdgeStyle;rounded=0;orthogonalLoop=1;jettySize=auto;html=1;" edge="1" parent="1" source="lZB2s9_LXxr9yZhgt-A8-224" target="lZB2s9_LXxr9yZhgt-A8-225">
          <mxGeometry relative="1" as="geometry" />
        </mxCell>
        <mxCell id="lZB2s9_LXxr9yZhgt-A8-223" style="edgeStyle=orthogonalEdgeStyle;rounded=0;orthogonalLoop=1;jettySize=auto;html=1;entryX=0;entryY=0.5;entryDx=0;entryDy=0;" edge="1" parent="1" source="lZB2s9_LXxr9yZhgt-A8-224" target="lZB2s9_LXxr9yZhgt-A8-207">
          <mxGeometry relative="1" as="geometry">
            <mxPoint x="2410.9016651826746" y="243.17834666532627" as="targetPoint" />
            <Array as="points">
              <mxPoint x="2432" y="507.93000000000006" />
              <mxPoint x="2432" y="235.93" />
            </Array>
          </mxGeometry>
        </mxCell>
        <mxCell id="lZB2s9_LXxr9yZhgt-A8-224" value="" style="rhombus;whiteSpace=wrap;html=1;rotation=90;" vertex="1" parent="1">
          <mxGeometry x="2542.19" y="501.18000000000006" width="25.63" height="13.75" as="geometry" />
        </mxCell>
        <mxCell id="lZB2s9_LXxr9yZhgt-A8-225" value="" style="ellipse;html=1;shape=endState;fillColor=#000000;strokeColor=#ff0000;direction=south;" vertex="1" parent="1">
          <mxGeometry x="2660" y="493.05999999999995" width="30" height="30" as="geometry" />
        </mxCell>
        <mxCell id="lZB2s9_LXxr9yZhgt-A8-226" value="Клиент уходит" style="edgeLabel;html=1;align=center;verticalAlign=middle;resizable=0;points=[];" vertex="1" connectable="0" parent="1">
          <mxGeometry x="2610.002279302841" y="493.0612745562362" as="geometry" />
        </mxCell>
        <mxCell id="lZB2s9_LXxr9yZhgt-A8-227" value="&lt;span style=&quot;font-size: 11px; text-wrap: nowrap; background-color: rgb(255, 255, 255);&quot;&gt;Клиент решил&lt;/span&gt;&lt;div&gt;&lt;span style=&quot;font-size: 11px; text-wrap: nowrap; background-color: rgb(255, 255, 255);&quot;&gt;&amp;nbsp;сделать новый&lt;/span&gt;&lt;/div&gt;&lt;div&gt;&lt;span style=&quot;font-size: 11px; text-wrap: nowrap; background-color: rgb(255, 255, 255);&quot;&gt;&amp;nbsp;заказ&lt;/span&gt;&lt;/div&gt;" style="text;whiteSpace=wrap;html=1;align=center;" vertex="1" parent="1">
          <mxGeometry x="2430" y="514.9300000000001" width="100" height="60" as="geometry" />
        </mxCell>
        <mxCell id="lZB2s9_LXxr9yZhgt-A8-228" style="edgeStyle=orthogonalEdgeStyle;rounded=0;orthogonalLoop=1;jettySize=auto;html=1;entryX=0;entryY=0.5;entryDx=0;entryDy=0;" edge="1" parent="1" source="lZB2s9_LXxr9yZhgt-A8-229" target="lZB2s9_LXxr9yZhgt-A8-233">
          <mxGeometry relative="1" as="geometry" />
        </mxCell>
        <mxCell id="lZB2s9_LXxr9yZhgt-A8-229" value="Повар готовит бллюдо" style="rounded=1;whiteSpace=wrap;html=1;" vertex="1" parent="1">
          <mxGeometry x="2799.12" y="594.06" width="103.75" height="50" as="geometry" />
        </mxCell>
        <mxCell id="lZB2s9_LXxr9yZhgt-A8-230" style="edgeStyle=orthogonalEdgeStyle;rounded=0;orthogonalLoop=1;jettySize=auto;html=1;curved=0;entryX=0.5;entryY=0;entryDx=0;entryDy=0;" edge="1" parent="1">
          <mxGeometry relative="1" as="geometry">
            <mxPoint x="2850.38" y="555.9300000000001" as="sourcePoint" />
            <mxPoint x="2850.38" y="595.9300000000001" as="targetPoint" />
            <Array as="points">
              <mxPoint x="2850.38" y="555.9300000000001" />
            </Array>
          </mxGeometry>
        </mxCell>
        <mxCell id="lZB2s9_LXxr9yZhgt-A8-231" value="" style="html=1;points=[[0,0,0,0,5],[0,1,0,0,-5],[1,0,0,0,5],[1,1,0,0,-5]];perimeter=orthogonalPerimeter;outlineConnect=0;targetShapes=umlLifeline;portConstraint=eastwest;newEdgeStyle={&quot;curved&quot;:0,&quot;rounded&quot;:0};gradientColor=none;fillColor=#000000;rotation=90;" vertex="1" parent="1">
          <mxGeometry x="2856" y="275.93" width="10" height="290" as="geometry" />
        </mxCell>
        <mxCell id="lZB2s9_LXxr9yZhgt-A8-232" style="edgeStyle=orthogonalEdgeStyle;rounded=0;orthogonalLoop=1;jettySize=auto;html=1;entryX=0.5;entryY=1;entryDx=0;entryDy=0;" edge="1" parent="1" source="lZB2s9_LXxr9yZhgt-A8-233" target="lZB2s9_LXxr9yZhgt-A8-234">
          <mxGeometry relative="1" as="geometry" />
        </mxCell>
        <mxCell id="lZB2s9_LXxr9yZhgt-A8-233" value="Официант предеает блюдо клиенту" style="rounded=1;whiteSpace=wrap;html=1;" vertex="1" parent="1">
          <mxGeometry x="2953" y="594.06" width="103.75" height="50" as="geometry" />
        </mxCell>
        <mxCell id="lZB2s9_LXxr9yZhgt-A8-234" value="" style="ellipse;html=1;shape=endState;fillColor=#000000;strokeColor=#ff0000;direction=south;" vertex="1" parent="1">
          <mxGeometry x="3103" y="604.06" width="30" height="30" as="geometry" />
        </mxCell>
        <mxCell id="lZB2s9_LXxr9yZhgt-A8-235" value="Официант принимает заказ блюда" style="rounded=1;whiteSpace=wrap;html=1;" vertex="1" parent="1">
          <mxGeometry x="2645" y="275.93" width="130" height="30" as="geometry" />
        </mxCell>
        <mxCell id="lZB2s9_LXxr9yZhgt-A8-236" value="" style="ellipse;fillColor=strokeColor;html=1;" vertex="1" parent="1">
          <mxGeometry x="2515" y="140.93" width="30" height="30" as="geometry" />
        </mxCell>
        <mxCell id="lZB2s9_LXxr9yZhgt-A8-238" value="" style="ellipse;html=1;shape=endState;fillColor=strokeColor;" vertex="1" parent="1">
          <mxGeometry x="3103" y="604.06" width="30" height="30" as="geometry" />
        </mxCell>
        <mxCell id="lZB2s9_LXxr9yZhgt-A8-239" value="" style="ellipse;html=1;shape=endState;fillColor=strokeColor;" vertex="1" parent="1">
          <mxGeometry x="2660" y="493.06" width="30" height="30" as="geometry" />
        </mxCell>
        <mxCell id="lZB2s9_LXxr9yZhgt-A8-244" value="" style="rounded=0;whiteSpace=wrap;html=1;rotation=90;fillColor=none;" vertex="1" parent="1">
          <mxGeometry x="3294.85" y="180.85000000000002" width="706.5" height="471.2" as="geometry" />
        </mxCell>
        <mxCell id="lZB2s9_LXxr9yZhgt-A8-245" value="" style="rounded=0;whiteSpace=wrap;html=1;rotation=90;fillColor=none;" vertex="1" parent="1">
          <mxGeometry x="3653.25" y="329.45000000000005" width="708" height="174" as="geometry" />
        </mxCell>
        <mxCell id="lZB2s9_LXxr9yZhgt-A8-246" value="" style="rounded=0;whiteSpace=wrap;html=1;rotation=90;fillColor=none;" vertex="1" parent="1">
          <mxGeometry x="2940" y="328.25" width="705.5" height="174" as="geometry" />
        </mxCell>
        <mxCell id="lZB2s9_LXxr9yZhgt-A8-247" value="&lt;u&gt;Клиент&lt;/u&gt;" style="text;html=1;align=center;verticalAlign=middle;whiteSpace=wrap;rounded=0;" vertex="1" parent="1">
          <mxGeometry x="3257.25" y="68" width="60" height="30" as="geometry" />
        </mxCell>
        <mxCell id="lZB2s9_LXxr9yZhgt-A8-248" style="edgeStyle=orthogonalEdgeStyle;rounded=0;orthogonalLoop=1;jettySize=auto;html=1;exitX=0.5;exitY=1;exitDx=0;exitDy=0;entryX=0.5;entryY=0;entryDx=0;entryDy=0;" edge="1" parent="1" source="lZB2s9_LXxr9yZhgt-A8-249" target="lZB2s9_LXxr9yZhgt-A8-251">
          <mxGeometry relative="1" as="geometry" />
        </mxCell>
        <mxCell id="lZB2s9_LXxr9yZhgt-A8-249" value="" style="ellipse;html=1;shape=endState;fillColor=#000000;strokeColor=#ff0000;" vertex="1" parent="1">
          <mxGeometry x="3272.25" y="117" width="30" height="30" as="geometry" />
        </mxCell>
        <mxCell id="lZB2s9_LXxr9yZhgt-A8-250" style="edgeStyle=orthogonalEdgeStyle;rounded=0;orthogonalLoop=1;jettySize=auto;html=1;entryX=0.5;entryY=0;entryDx=0;entryDy=0;" edge="1" parent="1" source="lZB2s9_LXxr9yZhgt-A8-251" target="lZB2s9_LXxr9yZhgt-A8-253">
          <mxGeometry relative="1" as="geometry" />
        </mxCell>
        <mxCell id="lZB2s9_LXxr9yZhgt-A8-251" value="Клиент зовет официанта" style="rounded=1;whiteSpace=wrap;html=1;" vertex="1" parent="1">
          <mxGeometry x="3222.25" y="195" width="130" height="30" as="geometry" />
        </mxCell>
        <mxCell id="lZB2s9_LXxr9yZhgt-A8-252" style="edgeStyle=orthogonalEdgeStyle;rounded=0;orthogonalLoop=1;jettySize=auto;html=1;entryX=0.5;entryY=0;entryDx=0;entryDy=0;" edge="1" parent="1" source="lZB2s9_LXxr9yZhgt-A8-253" target="lZB2s9_LXxr9yZhgt-A8-257">
          <mxGeometry relative="1" as="geometry">
            <Array as="points">
              <mxPoint x="3578.25" y="294" />
            </Array>
          </mxGeometry>
        </mxCell>
        <mxCell id="lZB2s9_LXxr9yZhgt-A8-253" value="Клиент делает заказ блюда" style="rounded=1;whiteSpace=wrap;html=1;" vertex="1" parent="1">
          <mxGeometry x="3222.25" y="279" width="130" height="30" as="geometry" />
        </mxCell>
        <mxCell id="lZB2s9_LXxr9yZhgt-A8-254" value="&lt;u&gt;Официант&lt;/u&gt;" style="text;html=1;align=center;verticalAlign=middle;whiteSpace=wrap;rounded=0;" vertex="1" parent="1">
          <mxGeometry x="3600.25" y="68" width="83" height="30" as="geometry" />
        </mxCell>
        <mxCell id="lZB2s9_LXxr9yZhgt-A8-255" value="&lt;u&gt;Повар&lt;/u&gt;" style="text;html=1;align=center;verticalAlign=middle;whiteSpace=wrap;rounded=0;" vertex="1" parent="1">
          <mxGeometry x="3965.75" y="72" width="83" height="30" as="geometry" />
        </mxCell>
        <mxCell id="lZB2s9_LXxr9yZhgt-A8-256" style="edgeStyle=orthogonalEdgeStyle;rounded=0;orthogonalLoop=1;jettySize=auto;html=1;entryX=0.5;entryY=0;entryDx=0;entryDy=0;" edge="1" parent="1" source="lZB2s9_LXxr9yZhgt-A8-257" target="lZB2s9_LXxr9yZhgt-A8-263">
          <mxGeometry relative="1" as="geometry" />
        </mxCell>
        <mxCell id="lZB2s9_LXxr9yZhgt-A8-257" value="Официант принимает заказ блюда" style="rounded=1;whiteSpace=wrap;html=1;" vertex="1" parent="1">
          <mxGeometry x="3513.25" y="312" width="130" height="30" as="geometry" />
        </mxCell>
        <mxCell id="lZB2s9_LXxr9yZhgt-A8-258" style="edgeStyle=orthogonalEdgeStyle;rounded=0;orthogonalLoop=1;jettySize=auto;html=1;entryX=0;entryY=0.5;entryDx=0;entryDy=0;" edge="1" parent="1" source="lZB2s9_LXxr9yZhgt-A8-259" target="lZB2s9_LXxr9yZhgt-A8-282">
          <mxGeometry relative="1" as="geometry" />
        </mxCell>
        <mxCell id="lZB2s9_LXxr9yZhgt-A8-259" value="Сообщить клиенту об отсутствии блюда" style="rounded=1;whiteSpace=wrap;html=1;" vertex="1" parent="1">
          <mxGeometry x="3453.25" y="472.25" width="130" height="30" as="geometry" />
        </mxCell>
        <mxCell id="lZB2s9_LXxr9yZhgt-A8-260" value="&lt;span style=&quot;&quot;&gt;Блюдо&amp;nbsp;&lt;/span&gt;&lt;div&gt;&lt;span style=&quot;&quot;&gt;закончилось&lt;/span&gt;&lt;/div&gt;" style="text;whiteSpace=wrap;html=1;align=center;" vertex="1" parent="1">
          <mxGeometry x="3472.75" y="356" width="78" height="40" as="geometry" />
        </mxCell>
        <mxCell id="lZB2s9_LXxr9yZhgt-A8-261" style="edgeStyle=orthogonalEdgeStyle;rounded=0;orthogonalLoop=1;jettySize=auto;html=1;entryX=0.5;entryY=0;entryDx=0;entryDy=0;" edge="1" parent="1" source="lZB2s9_LXxr9yZhgt-A8-263" target="lZB2s9_LXxr9yZhgt-A8-259">
          <mxGeometry relative="1" as="geometry">
            <mxPoint x="3580.5" y="397" as="sourcePoint" />
            <mxPoint x="3462.5" y="452" as="targetPoint" />
            <Array as="points">
              <mxPoint x="3518.25" y="397" />
            </Array>
          </mxGeometry>
        </mxCell>
        <mxCell id="lZB2s9_LXxr9yZhgt-A8-262" value="" style="edgeStyle=orthogonalEdgeStyle;rounded=0;orthogonalLoop=1;jettySize=auto;html=1;entryX=0.5;entryY=0;entryDx=0;entryDy=0;" edge="1" parent="1" target="lZB2s9_LXxr9yZhgt-A8-263">
          <mxGeometry relative="1" as="geometry">
            <mxPoint x="3580.5" y="397" as="sourcePoint" />
            <mxPoint x="3518.25" y="472" as="targetPoint" />
            <Array as="points" />
          </mxGeometry>
        </mxCell>
        <mxCell id="lZB2s9_LXxr9yZhgt-A8-263" value="" style="rhombus;whiteSpace=wrap;html=1;" vertex="1" parent="1">
          <mxGeometry x="3545.75" y="382" width="65" height="30" as="geometry" />
        </mxCell>
        <mxCell id="lZB2s9_LXxr9yZhgt-A8-264" style="edgeStyle=orthogonalEdgeStyle;rounded=0;orthogonalLoop=1;jettySize=auto;html=1;curved=0;entryX=0.5;entryY=0;entryDx=0;entryDy=0;" edge="1" parent="1" target="lZB2s9_LXxr9yZhgt-A8-265">
          <mxGeometry relative="1" as="geometry">
            <mxPoint x="3651.25" y="457.20000000000005" as="sourcePoint" />
            <Array as="points">
              <mxPoint x="3651.25" y="457.20000000000005" />
            </Array>
          </mxGeometry>
        </mxCell>
        <mxCell id="lZB2s9_LXxr9yZhgt-A8-265" value="передать информацию повару" style="rounded=1;whiteSpace=wrap;html=1;" vertex="1" parent="1">
          <mxGeometry x="3651.25" y="497.20000000000005" width="78.38" height="50" as="geometry" />
        </mxCell>
        <mxCell id="lZB2s9_LXxr9yZhgt-A8-266" value="Добавить заказ в лист ожидания" style="rounded=1;whiteSpace=wrap;html=1;" vertex="1" parent="1">
          <mxGeometry x="3755.25" y="497.20000000000005" width="80" height="50" as="geometry" />
        </mxCell>
        <mxCell id="lZB2s9_LXxr9yZhgt-A8-267" style="edgeStyle=orthogonalEdgeStyle;rounded=0;orthogonalLoop=1;jettySize=auto;html=1;curved=0;entryX=0.5;entryY=0;entryDx=0;entryDy=0;" edge="1" parent="1">
          <mxGeometry relative="1" as="geometry">
            <mxPoint x="3806.63" y="457.20000000000005" as="sourcePoint" />
            <mxPoint x="3806.63" y="497.20000000000005" as="targetPoint" />
            <Array as="points">
              <mxPoint x="3806.63" y="468.20000000000005" />
              <mxPoint x="3806.63" y="468.20000000000005" />
            </Array>
          </mxGeometry>
        </mxCell>
        <mxCell id="lZB2s9_LXxr9yZhgt-A8-268" style="edgeStyle=orthogonalEdgeStyle;rounded=0;orthogonalLoop=1;jettySize=auto;html=1;curved=0;entryX=0;entryY=0.5;entryDx=0;entryDy=0;" edge="1" parent="1" source="lZB2s9_LXxr9yZhgt-A8-269" target="lZB2s9_LXxr9yZhgt-A8-275">
          <mxGeometry relative="1" as="geometry" />
        </mxCell>
        <mxCell id="lZB2s9_LXxr9yZhgt-A8-269" value="" style="html=1;points=[[0,0,0,0,5],[0,1,0,0,-5],[1,0,0,0,5],[1,1,0,0,-5]];perimeter=orthogonalPerimeter;outlineConnect=0;targetShapes=umlLifeline;portConstraint=eastwest;newEdgeStyle={&quot;curved&quot;:0,&quot;rounded&quot;:0};gradientColor=none;fillColor=#000000;rotation=90;" vertex="1" parent="1">
          <mxGeometry x="3741.98" y="547.8900000000001" width="10" height="88.67" as="geometry" />
        </mxCell>
        <mxCell id="lZB2s9_LXxr9yZhgt-A8-270" style="edgeStyle=orthogonalEdgeStyle;rounded=0;orthogonalLoop=1;jettySize=auto;html=1;curved=0;entryX=0.5;entryY=0;entryDx=0;entryDy=0;" edge="1" parent="1">
          <mxGeometry relative="1" as="geometry">
            <mxPoint x="3716.25" y="547.2" as="sourcePoint" />
            <mxPoint x="3716.25" y="587.2" as="targetPoint" />
            <Array as="points">
              <mxPoint x="3716.25" y="547.2" />
            </Array>
          </mxGeometry>
        </mxCell>
        <mxCell id="lZB2s9_LXxr9yZhgt-A8-271" style="edgeStyle=orthogonalEdgeStyle;rounded=0;orthogonalLoop=1;jettySize=auto;html=1;curved=0;entryX=0.5;entryY=0;entryDx=0;entryDy=0;" edge="1" parent="1">
          <mxGeometry relative="1" as="geometry">
            <mxPoint x="3776.66" y="550.2" as="sourcePoint" />
            <mxPoint x="3776.66" y="590.2" as="targetPoint" />
            <Array as="points">
              <mxPoint x="3776.66" y="561.2" />
              <mxPoint x="3776.66" y="561.2" />
            </Array>
          </mxGeometry>
        </mxCell>
        <mxCell id="lZB2s9_LXxr9yZhgt-A8-272" value="" style="html=1;points=[[0,0,0,0,5],[0,1,0,0,-5],[1,0,0,0,5],[1,1,0,0,-5]];perimeter=orthogonalPerimeter;outlineConnect=0;targetShapes=umlLifeline;portConstraint=eastwest;newEdgeStyle={&quot;curved&quot;:0,&quot;rounded&quot;:0};gradientColor=none;fillColor=#000000;rotation=90;" vertex="1" parent="1">
          <mxGeometry x="3730.13" y="362" width="10" height="186" as="geometry" />
        </mxCell>
        <mxCell id="lZB2s9_LXxr9yZhgt-A8-273" style="edgeStyle=orthogonalEdgeStyle;rounded=0;orthogonalLoop=1;jettySize=auto;html=1;exitX=1;exitY=0.5;exitDx=0;exitDy=0;entryX=0.5;entryY=0;entryDx=0;entryDy=0;" edge="1" parent="1" source="lZB2s9_LXxr9yZhgt-A8-263">
          <mxGeometry relative="1" as="geometry">
            <mxPoint x="3615.75" y="396" as="sourcePoint" />
            <mxPoint x="3732.75" y="451" as="targetPoint" />
          </mxGeometry>
        </mxCell>
        <mxCell id="lZB2s9_LXxr9yZhgt-A8-274" style="edgeStyle=orthogonalEdgeStyle;rounded=0;orthogonalLoop=1;jettySize=auto;html=1;entryX=1;entryY=0.5;entryDx=0;entryDy=0;" edge="1" parent="1" source="lZB2s9_LXxr9yZhgt-A8-275" target="lZB2s9_LXxr9yZhgt-A8-277">
          <mxGeometry relative="1" as="geometry">
            <Array as="points">
              <mxPoint x="4003.25" y="680" />
            </Array>
          </mxGeometry>
        </mxCell>
        <mxCell id="lZB2s9_LXxr9yZhgt-A8-275" value="Повар готовит бллюдо" style="rounded=1;whiteSpace=wrap;html=1;" vertex="1" parent="1">
          <mxGeometry x="3955.38" y="567.22" width="103.75" height="50" as="geometry" />
        </mxCell>
        <mxCell id="lZB2s9_LXxr9yZhgt-A8-276" style="edgeStyle=orthogonalEdgeStyle;rounded=0;orthogonalLoop=1;jettySize=auto;html=1;entryX=0;entryY=0.5;entryDx=0;entryDy=0;" edge="1" parent="1" source="lZB2s9_LXxr9yZhgt-A8-277" target="lZB2s9_LXxr9yZhgt-A8-278">
          <mxGeometry relative="1" as="geometry" />
        </mxCell>
        <mxCell id="lZB2s9_LXxr9yZhgt-A8-277" value="Официант предеает блюдо клиенту" style="rounded=1;whiteSpace=wrap;html=1;" vertex="1" parent="1">
          <mxGeometry x="3573.25" y="655" width="103.75" height="50" as="geometry" />
        </mxCell>
        <mxCell id="lZB2s9_LXxr9yZhgt-A8-278" value="" style="ellipse;html=1;shape=endState;fillColor=#000000;strokeColor=#ff0000;direction=south;" vertex="1" parent="1">
          <mxGeometry x="3610.75" y="732" width="30" height="30" as="geometry" />
        </mxCell>
        <mxCell id="lZB2s9_LXxr9yZhgt-A8-279" value="&lt;span style=&quot;color: rgb(0, 0, 0); font-family: Helvetica; font-size: 12px; font-style: normal; font-variant-ligatures: normal; font-variant-caps: normal; font-weight: 400; letter-spacing: normal; orphans: 2; text-align: center; text-indent: 0px; text-transform: none; widows: 2; word-spacing: 0px; -webkit-text-stroke-width: 0px; white-space: normal; background-color: rgb(251, 251, 251); text-decoration-thickness: initial; text-decoration-style: initial; text-decoration-color: initial; display: inline !important; float: none;&quot;&gt;Блюдо имеется&lt;/span&gt;" style="text;whiteSpace=wrap;html=1;" vertex="1" parent="1">
          <mxGeometry x="3615.25" y="366" width="140" height="30" as="geometry" />
        </mxCell>
        <mxCell id="lZB2s9_LXxr9yZhgt-A8-280" style="edgeStyle=orthogonalEdgeStyle;rounded=0;orthogonalLoop=1;jettySize=auto;html=1;entryX=0.5;entryY=1;entryDx=0;entryDy=0;" edge="1" parent="1" source="lZB2s9_LXxr9yZhgt-A8-282" target="lZB2s9_LXxr9yZhgt-A8-283">
          <mxGeometry relative="1" as="geometry" />
        </mxCell>
        <mxCell id="lZB2s9_LXxr9yZhgt-A8-281" style="edgeStyle=orthogonalEdgeStyle;rounded=0;orthogonalLoop=1;jettySize=auto;html=1;entryX=0.5;entryY=1;entryDx=0;entryDy=0;" edge="1" parent="1" source="lZB2s9_LXxr9yZhgt-A8-282" target="lZB2s9_LXxr9yZhgt-A8-253">
          <mxGeometry relative="1" as="geometry" />
        </mxCell>
        <mxCell id="lZB2s9_LXxr9yZhgt-A8-282" value="" style="rhombus;whiteSpace=wrap;html=1;rotation=90;" vertex="1" parent="1">
          <mxGeometry x="3505.44" y="559" width="25.63" height="13.75" as="geometry" />
        </mxCell>
        <mxCell id="lZB2s9_LXxr9yZhgt-A8-283" value="" style="ellipse;html=1;shape=endState;fillColor=#000000;strokeColor=#ff0000;direction=south;" vertex="1" parent="1">
          <mxGeometry x="3604.25" y="550.8800000000001" width="30" height="30" as="geometry" />
        </mxCell>
        <mxCell id="lZB2s9_LXxr9yZhgt-A8-284" value="Клиент уходит" style="edgeLabel;html=1;align=center;verticalAlign=middle;resizable=0;points=[];" vertex="1" connectable="0" parent="1">
          <mxGeometry x="3561.252279302841" y="580.8812745562363" as="geometry" />
        </mxCell>
        <mxCell id="lZB2s9_LXxr9yZhgt-A8-285" value="&lt;span style=&quot;font-size: 11px; text-wrap: nowrap; background-color: rgb(255, 255, 255);&quot;&gt;Клиент решил&lt;/span&gt;&lt;div&gt;&lt;span style=&quot;font-size: 11px; text-wrap: nowrap; background-color: rgb(255, 255, 255);&quot;&gt;&amp;nbsp;сделать новый&lt;/span&gt;&lt;/div&gt;&lt;div&gt;&lt;span style=&quot;font-size: 11px; text-wrap: nowrap; background-color: rgb(255, 255, 255);&quot;&gt;&amp;nbsp;заказ&lt;/span&gt;&lt;/div&gt;" style="text;whiteSpace=wrap;html=1;align=center;" vertex="1" parent="1">
          <mxGeometry x="3408.25" y="567.22" width="100" height="60" as="geometry" />
        </mxCell>
        <mxCell id="lZB2s9_LXxr9yZhgt-A8-286" value="" style="ellipse;fillColor=strokeColor;html=1;" vertex="1" parent="1">
          <mxGeometry x="3272.25" y="117" width="30" height="30" as="geometry" />
        </mxCell>
        <mxCell id="lZB2s9_LXxr9yZhgt-A8-287" value="" style="ellipse;html=1;shape=endState;fillColor=strokeColor;" vertex="1" parent="1">
          <mxGeometry x="3610.75" y="732" width="30" height="30" as="geometry" />
        </mxCell>
        <mxCell id="lZB2s9_LXxr9yZhgt-A8-288" value="" style="ellipse;html=1;shape=endState;fillColor=strokeColor;" vertex="1" parent="1">
          <mxGeometry x="3604.25" y="550.8699999999999" width="30" height="30" as="geometry" />
        </mxCell>
      </root>
    </mxGraphModel>
  </diagram>
</mxfile>
